<?xml version="1.0" encoding="UTF-8"?>
<svg width="640" height="480" xmlns="http://www.w3.org/2000/svg" xmlns:svg="http://www.w3.org/2000/svg">
 <!-- Created with SVG-edit - http://svg-edit.googlecode.com/ -->
 <g>
  <title>Layer 1</title>
  <path d="m27,28c0,1.825333 0,2.833334 0,3.661333c0,0.881502 0,1.6 0,2.390501c0,1.261497 0,2.101498 0,3.064167c0,0.767998 0,1.730667 0,2.345665c0,1.222332 0,2.038334 0,2.585667c0,1.265999 0,2.105999 0,3.067333c0,0.885334 0,1.685333 0,2.585335c0,0.899998 0,1.799999 0,2.700001c0,0.908997 0,1.570663 0,2.605331c0,0.743999 0,1.851665 0,2.685669c0,0.850666 0,1.851833 0,2.570332c0,0.790501 0,1.817165 0,2.717834c0,1.020832 0,1.842167 0,2.535164c0,1.128666 0,1.799999 0,2.527332c0,0.767334 0,1.958336 0,2.757004c0,0.790665 0,1.944168 0,3.034668c0,0.681328 0,1.645828 0,2.262161c0,1.204834 0,1.813499 0,2.776505c0,0.698662 0,1.870995 0,2.742332c0,0.92733 0,1.406998 0,2.388336c0,1.497162 0,1.995995 0,2.986664c0,0.48983 0,1.453499 0,2.844002c0,0.882668 0,1.313995 0,2.166664c0,0.852669 0,2.166664 0,3.08667c0,0.474998 0,1.454994 0,2.474998c0,0.525002 0,2.159668 0,2.722328c0,0.568672 0,1.716003 0,2.290672c0,1.141335 0,2.258667 0,2.804161c0,1.073006 0,1.606506 0,2.682503c0,0.5485 0,2.272003 0,2.881004c0,0.622993 0,1.886993 0,2.515999c0,0.618996 0,1.802994 0,2.875c0,0.927994 0,1.743996 0,2.495995c0,0.736 0,1.913834 0,2.789505c0,0.943665 0,1.438499 0,2.469162c0,1.078667 -0.000162,2.194679 0.004499,2.76017c0.004669,0.566513 0.022959,1.690895 0.052668,2.241997c0.085066,1.578018 0.2236,2.542328 0.2955,3.004501c0.140999,0.906342 0.303377,1.809464 0.363333,2.273331c0.190199,1.471527 0.208523,2.000946 0.248001,3.093338c0.020214,0.559341 0.032856,1.690506 0.034666,2.255997c0.005318,1.661484 0.001333,2.199997 0.001333,3.268005c0,0.535492 0,1.624496 0,2.18399c0,1.164001 0,2.400009 0,3.040512c0,0.651489 0,1.310989 0,1.975494c0,1.332001 -0.000509,2.647995 0.000166,3.292999c0.000666,0.634995 0.007875,1.875046 0.020668,2.479996c0.012585,0.595062 0.044655,1.756622 0.145832,2.875c0.09812,1.084579 0.184879,1.614151 0.333334,2.666672c0.074108,0.525406 0.235214,1.582092 0.333334,2.666672c0.101177,1.118378 0.113905,1.694855 0.130667,2.279999c0.034369,1.199768 0.032757,1.815002 0.034666,2.440002c0.003908,1.279999 0.001333,2.595993 0.001333,3.26149c0,0.666504 0,1.331009 0,2.641998c0,0.640503 0,1.876511 0,2.46701c0,1.132996 0,1.681488 0,2.757492c0,0.533508 0,2.152008 0,2.706665c0,1.131332 0,1.70401 0,2.278671c0,1.147339 0,1.716003 0,3.378662c0,0.537338 0,1.596008 0,2.121338c0,1.052673 0,1.584 0,3.221161c0,0.561508 0,1.693512 0,2.258011c0,0.559494 0,1.651489 0,2.6875c0,0.965332 0,1.88266 0,2.783997c0,0.454666 0,1.88266 0,2.917328c0,0.537338 0,1.632004 0,2.181335c0,1.082672 0,2.11734 0,3.080002c0,0.898666 0,1.328995 0,2.161667c0,1.209 0,2.009003 0,2.809006c0,0.799988 0,1.599991 0,2.800156c0,0.804337 0,1.620667 0,2.457001c0,1.309509 0,2.224167 0,2.686508c0,0.914658 0,1.789322 0,2.956329c0,0.932999 0,1.703995 0,2.666672c0,0.794998 0,1.679993 0,2.319992c0,1.397339 0,2.138672 0,2.888c0,0.741333 0,1.804169 0,2.810669c0,0.675995 0,1.384003 0,2.557327c0,0.862671 0,1.757339 0,2.652008c0,1.272003 0,2.034668 0,2.733337c0,0.962997 0,1.871994 0,2.776489c0,0.616333 0,1.580841 0,2.617172c0,0.740005 0,1.520004 0,2.339996c0,1.305008 0,2.222336 0,2.69101c0,0.947327 0,1.894653 0,3.280655c0,0.444992 0,1.305008 0,2.125015c0,0.779999 0,2.220154 0,2.884491c0,0.946503 0,1.555847 0,2.757172c0,0.899994 0,1.5 0,2.699982c0,0.900024 0,1.5 0,2.700012c0,0.899994 0,1.5 0,2.399994c0,1.200012 0,1.800018 0,2.700012c0,1.199982 0,1.799988 0,2.699982c0,1.200012 0,1.800018 0,2.700012c0,0.899994 0,1.799988 0,2.700012c0,0.899994 0,1.799988 0,2.699982c0,0.899994 0,1.5 0,2.698669c0,0.880493 0,1.444183 0,2.716003c0,0.66449 0,1.685333 0,2.485321c0,0.800018 0,1.800018 0,2.600006c0,1.001343 0,1.835999 0,2.766663c0,0.786011 0,1.608002 0,2.666687c0,0.930664 0,1.76532 0,2.762146c0,0.747345 0,1.789856 0,2.737854c0,0.681 0,1.487976 0,2.666656c0,0.895508 0,1.479156 0,2.314667c0,1.232666 0,1.910675 0,2.85199c0,0.781525 0,1.823517 0,2.690521c0,0.890991 0,1.804474 0,2.604492c0,0.959656 0,1.763672 0,2.585663c0,1.031006 0,1.911011 0,2.931335c0,0.773987 0,1.678497 0,2.425842c0,0.996826 0,1.831482 0,2.762146c0,0.786011 0,1.608002 0,2.666687c0,0.930664 0,1.76532 0,2.771149c0,0.852661 0,1.817017 0,2.6315c0,0.8685 0,1.764008 0,2.659515c0,0.8685 0,1.937836 0,2.651825c0,0.905334 0,1.874176 0,2.68866c0,0.8685 0,1.764008 0,2.664001c0,0.899994 0,1.5 0,2.698669c0,0.880493 0,1.444183 0,2.717346c0,0.68399 0,1.850647 0,2.641144c0,0.853516 0,1.444183 0,2.642853c0,0.899994 0,1.5 0,2.699982c0,0.900024 0,1.5 0,2.700012c0,0.895508 0,1.479156 0,2.314667c0,1.232666 0,1.910675 0,2.85199c0,0.790497 0,1.644012 0,2.833344c0,0.895508 0,1.479156 0,2.314667c0,1.22818 0,1.874664 0,2.885345c0,0.799988 0,1.799988 0,2.589325l0,1.044006l0,0.791992" id="svg_7" stroke-linecap="null" stroke-linejoin="null" stroke-dasharray="null" stroke-width="5" stroke="#000000" fill="none"/>
  <path d="m54,28c0,2.969334 0,3.661333 0,4.385334c0,1.447998 0,2.133331 0,2.810665c0,1.070999 0,2.304001 0,2.768002c0,0.993999 0,1.512001 0,2.559998c0,0.518002 0,1.976002 0,2.82267c0,0.766666 0,1.493332 0,2.986664c0,0.836002 0,1.276501 0,2.1875c0,0.931 0,1.3965 0,2.757668c0,0.864334 0,1.700668 0,2.517002c0,1.204498 0,2.004498 0,2.804497c0,0.800003 0,1.600002 0,2.800167c0,0.804333 0,1.620667 0,2.457001c0,1.309502 0,1.764 0,2.690998c0,0.931 -0.001114,1.842003 0,3.1185c0.000668,0.764 -0.009224,1.473038 0.035999,2.148003c0.090809,1.355255 0.246376,2.070969 0.389336,2.821335c0.147652,0.774986 0.323135,1.561371 0.453167,2.763832c0.085823,0.79364 0.107254,1.579216 0.116997,2.343002c0.013908,1.090424 0.004501,2.1045 0.004501,2.757164c0,0.984001 -0.005531,2.021553 0.004501,2.757164c0.010414,0.763779 0.02026,1.550743 0.162167,2.742836c0.095577,0.802895 0.262539,1.599289 0.407997,2.400002c0.145203,0.799301 0.311138,1.999077 0.372669,2.791c0.059582,0.76683 0.027214,1.507492 0.273998,2.766167c0.155403,0.792595 0.488358,1.478264 0.657169,2.464165c0.136456,0.796936 0.119247,1.625992 0.121498,2.894669c0.001213,0.683998 0,1.367996 0,2.636665c0,0.547333 0,1.363335 0,2.590164c0,0.852669 0,1.855835 0,2.62117c0,0.950668 0,1.835999 0,2.593163c0,0.8955 0,1.758835 -0.035999,2.796173l-0.611336,0.499329l-0.35133,0.748665" id="svg_8" stroke-linecap="null" stroke-linejoin="null" stroke-dasharray="null" stroke-width="5" stroke="#000000" fill="none"/>
  <path d="m56,134c1.2215,0.878494 2.099998,1 3,1c0.799999,0 1.700001,0 2.599998,0c0.900002,0 1.800003,0 2.700005,0c0.899994,0 1.799995,0 2.699997,0c0.800003,0 1.699997,0 2.599998,0c0.900002,0 1.800003,0 2.700005,0c0.899994,0 1.799995,0 2.699997,0c0.800003,0 1.699997,0 2.599998,0c0.900002,0 1.800003,0 2.700005,0c0.899994,0 1.799995,0 2.699997,0c0.800003,0 1.699997,0 2.599998,0c0.900002,0 1.800003,0 2.700005,0c0.899994,0 1.799995,0 2.699997,0c0.800003,0 1.699997,0 2.599998,0c0.900002,0 1.800003,0 2.700005,0c0.899994,0 1.799995,0 2.699997,0c0.800003,0 1.823425,-0.412704 2.64283,0.057159c0.687843,0.394424 1.35717,0.942841 2.157173,0.942841c0.899994,0 1.799995,0 2.699997,0c0.900002,0 1.800003,0 2.699997,0c0.900002,0 1.800003,0 2.600006,0c0.899994,0 1.799995,0 2.699997,0c0.900002,0 1.800003,0 2.600166,0c0.785164,0 1.725166,0 2.73317,0c0.792,0 1.650665,0 2.514,0c1.016663,0 1.952667,0 2.852661,0c0.900002,0 1.800003,0 2.600006,0c0.899994,0 1.800003,0 2.653336,0c0.773331,0 1.753494,0 2.614502,0c0.952988,0 1.441498,-0.000061 2.397491,0c1.248505,0.000092 1.915985,-0.116928 2.859497,0.057159c0.952591,0.175766 1.833496,0.829269 2.500504,0.906845c1.001892,0.116516 1.737167,0.035995 2.841339,0.035995c0.669327,0 1.434662,0 2.231995,0c0.765335,0 2.17717,0 2.981339,0c0.96666,0 1.581665,0 2.802658,0c0.796509,0 1.548004,0 2.503006,0c1.014328,0 1.914337,0 2.814331,0c0.800003,0 1.636002,0 2.652664,0c0.694672,0 1.711334,0 2.647339,0c0.899994,0 1.800003,0 2.699997,0c0.800003,0 1.699997,0 2.600006,0c0.899994,0 1.799988,0 2.704498,0c0.862167,0 1.695496,0 2.674164,0c0.774002,0 1.673996,0 2.537338,0c0.983994,0 1.805328,0 2.658661,0c0.940002,0 1.925339,0 2.825333,0c0.800003,0 1.699997,0 2.600006,0c0.920822,0 1.721329,0 2.574661,0c0.940002,0 1.925339,0 2.825333,0c0.800003,0 1.699997,0 2.520828,0c0.963165,0 1.826508,0 2.722,0c0.958511,0 1.923843,0 2.582504,0c1.007996,0 1.800003,0 2.831833,0c0.74733,0 1.742828,0 2.542831,0c1,0 1.800018,0.00676 2.800003,0c0.789398,-0.005341 1.521713,-0.06897 2.5,-0.5c0.827866,-0.364746 1.541534,-0.489578 2.666672,-0.5c0.781464,-0.007233 1.571991,0 2.5,0c0.983994,0 1.875992,0 2.584,0c0.981323,0 1.934998,0 2.849335,0c0.899994,0 1.699997,0 2.535995,0c1.016663,0 1.711334,0 2.727997,0c0.940506,0 1.802673,0 2.677673,0c0.644989,0 1.640991,0 2.696991,0c0.928009,0 1.719666,0 2.671997,0c0.910675,0 1.764008,0 2.70401,0c0.88533,0 1.685333,0 2.585327,0c0.900009,0 1.820831,0 2.785339,0c0.725327,0 1.714493,0 2.493835,0c0.999496,0 1.773499,0 2.677994,0c0.74733,0 1.742828,0 2.542831,0c0.999832,0 1.965668,-0.056076 2.912003,0c0.304276,0.018036 -0.106659,0.682617 -0.112,1.543167c-0.004578,0.739487 0,1.623001 0,2.623505c0,1.081497 0,1.8125 0,2.523499c0,1.266998 0,2.048492 0,2.757996c0,0.973495 0,1.798508 0,2.713501c0,1.005005 0,1.722336 0,2.463669c0,1.121994 0,2.207993 0,2.889328c0,0.964508 0,1.580841 0,2.785172c0,0.889496 0,1.742996 0,2.778824c0,0.696014 0,1.605347 0,2.605347c0,0.815994 0,1.631989 0,2.630661c0,0.874664 0,1.88533 0,2.685333c0,1 0,1.789337 0,2.514664c0,0.964508 0,1.88533 0,2.785339c0,0.899994 0,1.800003 0,2.699997c0,0.800003 0,1.699997 0,2.600006c0,0.899994 0,1.799988 0,2.699997c0,0.899994 -0.047791,1.80127 0,2.699997c0.042725,0.803406 0.746948,1.53717 0.964005,2.399994c0.219757,0.873505 -0.014389,1.810104 0.121323,2.570679c0.144333,0.808929 0.534225,1.767166 0.748001,2.695999c0.18515,0.804459 0.166672,1.654831 0.166672,2.543991c0,0.989334 0,1.789337 0,2.789337c0,0.810669 0,1.457169 0,2.685333c0,0.550659 0,1.419174 0,2.614502c0,0.889496 0,1.464172 0,2.533493c0,0.941345 0,1.619339 0,2.850677c0,0.815994 0,1.363327 0,2.631989c0,0.684006 0,1.850677 0,2.636673c0,0.822006 0,1.880661 0,2.594666c0,0.905334 0,1.874161 0,2.68866c0,0.868515 0,1.764008 0,2.664001c0,0.900009 0,1.5 0,2.698669c0,0.880508 0,1.444168 0,2.716003c0,0.664505 0,1.685333 0,2.47467c0,1.043991 0,1.906158 0,2.810669c0,0.920822 0,1.721329 0,2.574661c0,0.940002 0,1.925339 0,2.825333c0,0.800003 0,1.636002 0,2.652664c0,0.694672 0,1.722 0,2.668671c0,0.678665 0,1.793335 0,2.678665c0,0.800003 0,1.699997 0,2.600006c0,0.899994 0,1.799988 0,2.699997c0,0.899994 0,1.800003 0,2.699997c0,0.757172 0,1.652664 0,2.516006c0,0.983994 0,1.805313 0,2.658646c0,0.940002 0.256271,2.050262 -0.221329,2.70401c-0.510712,0.699097 -0.778671,1.32135 -0.778671,2.221344c0,0.899994 0,1.699982 0,2.600006c0,0.935974 0,1.783997 0,2.647308c0,1.016693 0.012375,1.854095 0,2.819336c-0.010422,0.812714 -0.554459,1.441895 -0.942841,2.190521c-0.434967,0.83844 -0.057159,1.842834 -0.057159,2.742828c0,0.899994 0,1.699982 0,2.600006l0,0.899994" id="svg_9" stroke-linecap="null" stroke-linejoin="null" stroke-dasharray="null" stroke-width="5" stroke="#000000" fill="none"/>
  <path d="m59,153c0,2.789337 0,3.514664 0,4.479172c0,0.931488 0,1.842163 0,2.695496c0,0.940002 0,1.825333 0,2.582504c0,0.895493 0,1.758835 0,2.722c0,0.920822 0,1.820831 0,2.720825c0,0.900009 0,1.800003 0,2.600006c0,0.899994 0,1.800003 0,2.699997c0,0.899994 0,1.800003 0,2.699997c0,0.900009 0,1.800003 0,2.600006c0,0.899994 0,1.800003 0,2.699997c0,0.899994 0,1.800003 0,2.699997c0,0.900009 0,1.800003 0,2.600006c0,0.899994 0,1.800003 0,2.699997c0,0.899994 0,1.800003 0,2.70134c0,0.965332 0,1.79866 0,2.631989c0,0.862167 0,1.802673 0,2.650665c0,0.863342 0,1.758835 0,2.716003c0,0.900009 0,1.800003 0,2.557175c0,0.895493 0,1.758835 0,2.722c0,0.920822 0,1.820831 0,2.722168c0,0.965332 0,1.634659 0,2.79866c0,0.617996 0,1.343994 0,2.666672c0,0.869324 0,1.343994 0,2.333328c0,0.498672 0,1.464005 0,2.713837c0,0.931503 0,1.795502 0,2.827835c0,0.958328 0,1.81633 0,2.458328c0,0.947998 0,1.945328 0,2.743668c0,0.936005 0,1.647003 0,2.284332c0,1.278671 0,2.335327 0,2.898666c0,0.573334 0,1.710007 0,2.253326c0,1.413345 0,2.493347 0,3.146667c0,0.693344 0,1.980667 0,2.498672c0,1.143997 0,1.757996 0,2.391998c0,1.304001 0,2.615997 0,3.260666c0,0.632675 0,1.854004 0,2.438675c0,0.564667 0,1.625992 0,3.018661c0,0.788666 0,1.481339 0,2.375336c0,1.00267 0,1.842667 0,2.932159c0,0.85733 0,1.642517 0,2.58252c0,1.007996 0,1.763977 0,2.674652c0,0.910675 0,1.82132 0,2.674652c0,0.940002 0,1.825348 0,2.625336c0,0.900024 0,1.835999 0,2.684021c0,0.863312 0,1.763336 0,2.682648c0,0.854187 0,1.833344 0,2.622681c0,1.044006 0,1.835999 0,2.694672c0,0.863312 0,1.75882 0,2.716003c0,0.900146 0,1.685333 0,2.625336c0,1.007996 0,1.799988 0,2.659973c0,0.725342 0,1.914673 0,2.714691c0,0.799988 0,1.631989 0,2.37149c0,1.292664 0,2.091003 0,2.949341c0,0.439148 0,1.3125 0,2.536316c0,1.081512 0,1.757507 0,2.425507c0,1.401337 0,2.14267 0,2.891998c0,0.741333 0,1.80368 0,2.778656c0,0.88501 0,1.925354 0,2.621338c0,0.909332 0,1.910675 0,2.746185c0,0.583649 0,1.778992 0,2.668488c0,0.853516 0,1.88916 0,2.574677c0,0.834656 0,1.840485 0,2.693146c0,0.964172 0,1.768188 0,2.590179c0,1.031158 0,1.931824 0,2.952667c0,0.789337 0,1.514679 0,2.5c0,0.984009 0,1.674652 0,2.742828c0,0.857178 0,1.757172 0,2.557159c0,0.900024 0,1.800018 0,2.700012c0,0.899994 0,1.799988 0,2.701324c0,0.965332 0,1.798676 0,2.632019c0,0.919312 0,1.823822 0,2.571167c0,0.994171 0,1.759491 0,2.838318c0,0.857178 0,1.757172 0,2.557159c0,0.835999 0,1.857178 0,2.604523c0,0.995483 0,1.795502 0,2.795319c0,0.779327 0,1.778839 0,2.552826c0,0.900024 0,1.763336 0,2.747345c0,0.984009 0,1.674652 0,2.742828c0,0.857178 0,1.757172 0,2.557159c0,0.900024 0,1.800018 0,2.720856c0,0.967163 0,1.76181 0,2.8125c0,0.634644 0,1.317322 0,2.361328c0,0.971985 0,1.786499 0,2.63916c0,1.030182 0,1.966156 0,2.86618l0,0.899994" id="svg_10" stroke-linecap="null" stroke-linejoin="null" stroke-dasharray="null" stroke-width="5" stroke="#000000" fill="none"/>
  <path d="m59,156c1.799999,0 2.700001,0 3.599998,0c0.900002,0 1.800003,0 2.700005,0c0.899994,0 1.799995,0 2.699997,0c0.800003,0 1.700058,-0.010666 2.599998,0c0.879349,0.010422 1.336609,0.77478 2.1045,0.995499c0.860664,0.247375 1.830238,-0.048401 2.595505,0.357162c0.845886,0.448303 1.700455,0.620255 2.5,0.647339c0.844276,0.028595 1.354294,0.91626 2.199997,1c0.796112,0.078827 1.658836,0.117004 2.084,0.801331c0.50016,0.805038 1.41433,1.043457 2.263336,1.251343c0.917313,0.224609 1.640053,0.862289 2.452667,0.945999c0.895256,0.092209 1.871941,-0.326797 2.679161,0.022156c0.713982,0.30864 1.225327,0.976913 2.120834,0.979172c0.920837,0.002319 1.921867,-0.197571 2.69017,0.057159c0.77742,0.257751 1.32045,0.9375 2.209831,0.942841c0.899986,0.005402 1.800003,0 2.699997,0c0.900002,0 1.800003,0 2.600006,0c0.957161,0 1.917549,-0.24678 2.630661,0.085327c0.822311,0.382965 1.569336,0.914673 2.369339,0.914673c0.899994,0 1.720833,0 2.683998,0c0.863335,0 1.758835,0 2.718666,0c0.767998,0 1.566666,0 2.582664,0c1.048004,0 1.764481,-0.063766 2.610168,0.057159c1.018135,0.145584 1.740974,0.605194 2.583,0.821335c0.802895,0.2061 1.721497,0.121506 2.621498,0.121506c0.900002,0 1.801201,-0.042648 2.718002,0.004501c0.826202,0.04248 1.667679,0.215805 2.397163,0.34816c0.805862,0.14621 1.62764,0.319214 2.784836,0.480667c0.925964,0.129196 1.667953,0.161331 2.699997,0.166672c0.799988,0.004135 1.800003,0 2.600006,0c0.800003,0 1.800003,0 2.599991,0c1.001343,0 1.835999,0 2.766678,0c0.785995,0 1.608002,0 2.666656,0c0.919998,0 1.680008,0 2.756012,0c0.91066,0 1.715164,0 2.731995,0c0.678665,0 1.657501,0 2.488495,0c0.959503,0 1.710999,0 2.507507,0c1.220993,0 2.020996,0 2.929993,0c0.919342,0 1.794342,0 2.439331,0c0.996002,0 1.792511,0 2.980011,0c0.833328,0 1.666656,0 2.584,0c0.743988,0 1.781326,0 2.554657,0c0.962677,0 1.694672,0 2.861343,0c0.8125,0 1.654663,0 2.507996,0c0.94133,0 1.709335,0 2.650665,0c1.007996,0 1.870163,0 2.774673,0c0.899994,0 1.799988,0 2.699997,0c0.899994,0 1.800003,0 2.699997,0c0.800003,0 1.636002,0 2.652664,0c0.694672,0 1.711334,0 2.647339,0c0.899994,0 1.800003,0 2.699997,0c0.800003,0 1.699997,0 2.600006,0c0.899994,0 1.799988,0 2.699997,0c0.899994,0 1.800003,0 2.699997,0c0.800003,0 1.699997,0 2.600006,0c0.899994,0 1.799988,0 2.699997,0c0.899994,0 1.81311,-0.153046 2.699997,0c0.672363,0.116028 0.935349,1.136063 0.979172,2.020828c0.03096,0.625122 0.020828,1.714844 0.020828,2.583176c0,1.04866 0,1.743332 0,2.781326c0,0.947998 0,1.62001 0,2.609329c0,0.862503 0,1.75351 0,2.662506c0,0.74733 0,1.744171 0,2.578827c0,0.930679 -0.026428,1.722885 0.035995,2.574677c0.087463,1.193283 0.248001,1.789337 0.464005,2.689331c0.216003,0.899994 0.404755,1.797699 0.464005,2.689331c0.056641,0.852203 0.035995,1.889328 0.035995,2.585342c0,0.909332 0,1.91066 0,2.746155c0,0.880508 -0.018784,1.779434 0.010666,2.668503c0.02829,0.854294 0.195007,1.894028 0.414673,2.574677c0.271454,0.841095 0.541824,1.83934 0.57016,2.693161c0.031967,0.963486 0.004501,1.757492 0.004501,2.533005c0,1.039154 0,2.009827 0,2.766998c0,0.899994 0,1.647324 0,2.641495c0,0.944168 0,1.853165 0,2.570663c0,1.044998 0,1.852005 0,3.03067c0,0.597336 0,1.458328 0,2.22934c0,1.109329 0,2.091995 0,2.945328c0,0.942673 0,1.635162 0,2.593338c0,0.731995 -0.004486,1.898682 0,2.690323c0.005341,0.941711 0.393051,1.685257 0.716003,2.427002c0.388092,0.891342 0.283325,1.630676 0.283997,2.70401c0.00058,0.931488 0,1.731995 0,2.585327c0,0.94133 0,1.992004 0,2.650665c0,1.007996 0,1.835999 0,2.717499c0,0.977997 0,1.774506 0,2.771835c0,0.664505 0,1.685333 0,2.485336c0,0.800003 0,1.800003 0,2.599991c0,1 0,1.800003 0,2.800003c0,0.800003 0,1.800003 0,2.600006c0,0.800003 0,1.795502 0,2.714676c0,1.006165 0,1.818665 0,2.735992c0,0.743988 0,1.781342 0,2.554657c0,0.962677 0,1.694672 0,2.861328c0,0.791687 0,1.733337 0,2.633331c0,0.900024 0,1.800018 0,2.700012c0,0.799988 0.010666,1.700073 0,2.600006c-0.010422,0.879333 -0.610672,1.389313 -1.5,1.399994c-0.889328,0.010681 -1.4366,0.774811 -2.204498,0.995514c-0.860672,0.247375 -1.795502,0.002228 -2.695496,0.004486c-0.895523,0.002258 -1.40686,0.670502 -2.120834,0.979156c-0.80722,0.348969 -1.779175,0.020844 -2.679169,0.020844c-0.900009,0 -1.8004,-0.02536 -2.600006,0c-0.901352,0.028595 -1.62236,0.686188 -2.5,0.942841c-0.865555,0.253113 -1.800003,0.057159 -2.699997,0.057159c-0.800003,0 -1.802505,-0.027618 -2.295502,-0.714325c-0.452942,-0.63092 -0.651672,-1.684753 -0.693832,-2.521667c-0.046829,-0.929535 -0.010666,-1.716675 -0.010666,-2.538666c0,-1.058685 0,-2 0,-2.678009c0,-0.968658 0,-1.772675 0,-2.594666c0,-1.031342 0.000458,-1.952667 0,-2.636658c-0.000671,-1 0.034653,-1.822296 -0.085327,-2.632019c-0.183395,-1.237701 -0.616241,-1.801514 -0.829346,-2.799988c-0.220032,-1.030914 -0.050674,-1.735962 -0.170654,-2.570663c-0.144501,-1.005295 -0.432663,-1.787567 -0.630676,-2.544006c-0.24968,-0.953812 -0.283997,-1.936005 -0.283997,-2.790161c0,-0.979172 0,-1.779175 0,-2.579178c0,-1 0,-1.799988 0,-2.79866c0,-0.765335 0,-1.717331 0,-2.768005c0,-0.669327 0,-1.434662 0,-2.433334c0,-0.799988 0,-1.799988 0,-2.599991c0,-0.999832 0,-1.964005 0,-2.916c0,-0.768005 0,-1.720001 0,-2.485336c0,-0.998672 0.020981,-1.798904 -0.001328,-2.79866c-0.017868,-0.800552 -0.220505,-1.800003 -0.424011,-2.410675c-0.291397,-0.87442 -0.5112,-1.870529 -0.553833,-2.668503c-0.0401,-0.750671 -0.020828,-1.848831 -0.020828,-2.825333c0,-0.862167 0,-1.695496 0,-2.673996c0,-0.82016 0,-1.721497 0,-2.621506c0,-0.899994 0,-1.799988 0,-2.699997c0,-0.899994 0,-1.800003 0,-2.699997c0,-0.800003 0,-1.636002 0,-2.652664c0,-0.694672 0,-1.711334 0,-2.647339c0,-0.899994 0,-1.800003 0,-2.699997c0,-0.800003 0,-1.699997 0,-2.600006l0,-0.899994l0,-0.899994l0,-0.900009" id="svg_11" stroke-linecap="null" stroke-linejoin="null" stroke-dasharray="null" stroke-width="5" stroke="#000000" fill="none"/>
  <path d="m56,107c1.799999,0 2.700001,0 3.599998,0c0.900002,0 1.800003,0 2.700001,0c0.900002,0 1.700001,0 2.585331,0c0.940002,0 1.630669,0 2.704002,0c0.910667,0 1.810669,0 2.71067,0c0.899994,0 1.799995,0 2.699997,0c0.800003,0 1.699997,0 2.599998,0c0.900002,0 1.800003,0 2.700005,0c0.800163,0 1.585327,0 2.52533,0c1.008003,0 1.800003,0 2.658669,0c0.863335,0 1.901329,0 2.849335,0c0.676498,0 1.452011,-0.006004 2.5,0c0.93071,0.005333 1.778915,0.038834 2.766663,0.352669c0.609718,0.193718 1.59584,0.567688 2.400002,0.626495c0.997551,0.072952 1.800003,0.020836 2.599998,0.020836c0.995499,0 1.914665,-0.002029 2.764,0c0.940506,0.002251 1.802666,0.166664 2.636002,0.5c0.833336,0.333336 1.695496,0.497749 2.599998,0.5c0.821335,0.002045 1.733337,0 2.650665,0c0.744003,0 1.778671,0 2.749336,0c0.757164,0 1.666168,0 2.518837,0c1.123833,0 1.786499,0 2.481163,0c1.031998,0 1.956833,0 2.9375,0c0.895836,0 1.687836,0 2.719666,0c0.747337,0 1.742836,0 2.542831,0c0.99984,0 1.779167,0 2.778503,0c0.820168,0 1.693497,0 2.564163,0c0.957336,0 1.689331,0 2.647507,0c0.976501,0 1.830658,0 2.80983,0c0.800003,0 1.600006,0 2.604507,0c0.852661,0 1.816986,0 2.631485,0c0.868515,0 1.764008,0 2.6595,0c0.868515,0 1.937836,0 2.647339,0c0.852661,0 1.858505,0 2.693161,0c0.930679,0 1.721176,0 2.574677,0c1.189331,0 1.787994,0 2.668503,0c0.835495,0 1.836823,0 2.746155,0c0.941345,0 1.731842,0 2.585342,0c1.189331,0 1.789337,0 2.689331,0c0.899994,0 1.799835,0 2.689331,0c0.8535,0 1.889328,0 2.585342,0c0.909332,0 1.909332,0 2.725327,0c0.815994,0 1.815994,0 2.725327,0c0.941345,0 1.727341,0 2.549347,0c1.058655,0 1.772659,0 2.677994,0c0.968826,0 1.783325,0 2.65184,0c1.195328,0 1.790985,0 2.6595,0c1.069321,0 1.787827,0 2.745819,0c1.133011,0 1.800003,0 2.511002,0c0.731003,0 2.157501,0 2.817505,0c0.914993,0 1.994995,0 2.709,0c0.905334,0 1.874008,0 2.677994,0c0.822006,0 1.85318,0 2.538681,0c0.834656,0 1.835999,0 2.635986,0c0.998672,0 1.942841,0 2.847336,0c0.919342,0 1.794342,0 2.439331,0c0.997345,0 1.813339,0 2.629333,0c1.222336,0 2.022339,0 2.931335,0c0.919342,0 1.773499,0 2.75267,0c0.810669,0 1.457169,0 2.684006,0c0.815994,0 1.631989,0 2.630661,0c0.664505,0 1.685333,0 2.485336,0c0.800003,0 1.795502,0 2.714661,0c1.006165,0 1.818665,0 2.736008,0c0.743988,0 1.778656,0 2.749329,0c0.814331,0 1.768005,0 2.5,0c0.731995,0 1.859818,-0.071068 2.821503,0.221336c0.720245,0.218994 1.672241,0.658089 2.467834,0.742661c0.722092,0.076759 1.800003,0.036003 2.621323,0.036003c0.910843,0 1.800003,0 2.789169,0c0.779343,0 1.778671,0 2.495667,0c0.940506,0 1.788498,0 2.65184,0c1.016663,0 1.852661,0 2.75267,0c0.899994,0 1.699997,0 2.599991,0c0.936005,0 1.785339,0 2.704514,0c0.996826,0 1.831482,0 2.762146,0c0.786011,0 1.608002,0 2.666687,0c0.709503,0 1.562164,0 2.567993,0c0.834656,0 1.76532,0 2.551331,0c0.821991,0 1.880676,0 2.81134,0c0.834656,0 1.831482,0 2.578827,0c1.021179,0 1.857178,0 2.757172,0l0.899994,0l0.799988,0" id="svg_12" stroke-linecap="null" stroke-linejoin="null" stroke-dasharray="null" stroke-width="5" stroke="#000000" fill="none"/>
  <path d="m30,380c0,1.700012 0,2.700012 0,3.600006c0,0.899994 0,1.799988 0,2.699982c0,0.900024 0,1.800018 0,2.700012c0,0.799988 0,1.700012 0,2.600006c0,0.899994 0,1.704498 0,2.721313c0,0.67868 -0.312073,1.799072 0.221333,2.557343c0.498114,0.708099 0.778667,1.32135 0.778667,2.221344c0,0.899994 0,1.699982 0,2.600006c0,0.899994 0,1.799988 0,2.699982c0,0.899994 0,1.800018 0,2.700012c0,0.899994 0,1.699982 0,2.600006c0,0.899994 0,1.799988 0,2.699982c0,0.899994 0,1.800018 0,2.700012c0,0.899994 0,1.699982 0,2.600006c0,0.899994 0,1.799988 0,2.699982l0,0.899994l0,0.900024l0,0.899994" id="svg_13" stroke-linecap="null" stroke-linejoin="null" stroke-dasharray="null" stroke-width="5" stroke="#000000" fill="none"/>
  <path d="m32,421c1.799999,0 2.700001,0 3.599998,0c0.810669,0 1.721336,0 2.574669,0c0.939999,0 1.925331,0 2.825333,0c0.799999,0 1.700001,0 2.599998,0c0.900002,0 1.789333,0.010681 2.400002,0.5c0.610668,0.489319 1.5,0.5 2.400002,0.5c0.899998,0 1.799999,0 2.699997,0c0.900002,0 1.700001,0 2.600002,0c0.899998,0 1.799999,0 2.700001,0c0.899998,0 1.799999,0 2.699997,0c0.900002,0 1.700001,0 2.600002,0c0.899998,0 1.799999,0 2.710667,0c0.910667,0 1.764,0 2.70533,0c0.768005,0 1.720001,0 2.485336,0c0.994164,0 1.741501,0 2.762665,0c0.945,0 1.969337,0 2.645836,0c0.775497,0 1.823502,0 2.764832,0c0.678001,0 1.646667,0 2.450668,0c0.821999,0 1.853165,0 2.75383,0c1.020836,0 1.810165,0 2.854172,0c0.6875,0 1.709328,0 2.417328,0c0.981339,0 1.935005,0 2.849335,0c0.900002,0 1.657166,0 2.552666,0c0.863335,0 1.8265,0 2.768669,0c0.912003,0 1.584,0 2.573334,0c1.036003,0 1.753502,0 2.676003,0c0.905327,0 1.82933,0 2.581329,0c0.823997,0 1.672005,0 2.496002,0c1.087502,0 1.944,0 2.848,0c1.008499,0 1.861168,0 2.825333,0c0.804001,0 1.625999,0 2.657166,0c0.900665,0 1.520164,0 2.5215,0c0.800003,0 1.806671,0 2.779999,0c0.646667,0 1.926834,0 2.441338,0c1.115997,0 1.699501,0 2.288002,0c1.155998,0 2.223999,0 3.148003,0c0.787994,0 1.767487,0 2.82132,0c0.696014,0 1.605347,0 2.606674,0c0.835495,0 1.716003,0 2.615326,0c0.942001,0 1.643341,0 2.440674,0c1.444,0 1.994659,0 2.569336,0c1.189331,0 1.787994,0 2.378662,0c1.643997,0 2.570663,0 3.377335,0c0.726669,0 1.41333,0 2.455002,0c1.125,0 1.925003,0 2.339996,0c1.305008,0 2.223663,0 3.174332,0c0.484833,0 1.468506,0 2.964005,0c0.5,0 1.5,0 2,0c1,0 2,0 3,0c0.998672,0 1.495499,0 2.479172,0c0.963669,0 1.435501,0 2.799332,0c0.864334,0 1.700668,0 2.516998,0c1.204498,0 2.004501,0 2.804504,0c0.799988,0 1.599991,0 2.79982,0c0.79567,0 1.579346,0 2.343002,0c1.0905,0 2.109299,-0.004944 2.778,0.020844c0.689453,0.026581 1.813751,0.137268 2.645844,0.263153c0.874725,0.132355 1.7453,0.298981 2.580002,0.432007c1.087494,0.17334 1.966217,0.262207 2.754166,0.27951c1.141739,0.025085 1.80899,0.004486 2.519989,0.004486c1.096512,0 2.157501,0 2.817505,0c0.914993,0 1.994995,0 2.709,0c0.905334,0 1.874664,0 2.720673,0c0.650665,0 1.389328,0 2.695999,0c0.993988,0 1.511993,0 2.559998,0c0.518005,0 1.975998,0 2.824005,0c0.775986,0 1.528,0 2.303986,0c1.31218,0 1.801346,0 2.834671,0c0.534164,0 1.612503,0 2.146667,0c1.523499,0 2.44783,0 3.304169,0c0.796341,0 1.895828,0 2.574493,0c0.925507,0 1.716003,0 2.81601,0c0.871994,0 1.772324,0 2.64267,0c0.797333,0 1.778656,0 2.695999,0c0.8125,0 1.818665,0 2.543991,0c0.989334,0 1.789337,0 2.789337,0c0.810669,0 1.685333,0 2.682663,0c0.796509,0 1.548004,0 2.677338,0c0.693329,0 1.692001,0 2.639999,0c0.641998,0 1.736298,0.03891 2.686493,0c0.879715,-0.036011 1.283661,-0.713043 1.31218,-1.602661c0.031952,-0.996826 0.001328,-1.797333 0.001328,-2.798676c0,-0.834656 0,-1.76532 0,-2.546844c0,-0.790497 0,-1.908997 0,-2.666473c0,-0.870667 0,-1.789856 0,-2.785339c0,-0.800018 0,-1.800018 0,-2.600006c0,-1 0,-1.789337 0,-2.514679c0,-1.074646 0,-1.895996 0,-2.806641c0,-0.853333 0.053131,-1.794769 -0.000168,-2.778839c-0.042709,-0.788635 -0.395126,-1.541565 -0.647171,-2.304352c-0.322998,-0.977509 -0.347321,-1.75946 -0.352661,-2.842834c-0.004532,-0.919312 0,-1.599335 0,-2.439331c0,-0.996002 0,-1.79248 0,-2.97998c0,-0.671997 0,-1.654663 0,-2.507996c0,-0.942688 0,-1.794678 0,-2.594696c0,-0.751495 0,-1.547974 0,-2.773499c0,-0.852661 0,-1.857147 0,-2.657166c0,-0.999817 0,-1.779144 0,-2.633331c0,-0.862152 0,-1.802643 0,-2.65332c0,-0.76001 0,-1.934509 0,-2.727997c0,-0.775513 0,-1.81601 0,-2.533508c0,-0.90451 0,-1.767822 0,-2.730988c0,-0.931519 0,-1.842163 0,-2.695496c0,-0.940002 0,-1.825348 0,-2.625336c0,-0.900024 0,-1.800018 0,-2.700012c0,-0.899994 0,-1.799988 0,-2.701324c0,-0.965332 0,-1.798676 0,-2.632019c0,-0.862152 0,-1.766663 0,-2.666656c0,-0.899994 0,-1.799988 0,-2.700012c0,-0.899994 0,-1.799988 0,-2.599976c0,-0.900024 0,-1.800018 0,-2.700012c0,-0.899994 0,-1.799988 0,-2.701324c0,-0.965332 0,-1.798676 0,-2.632019c0,-0.862152 0,-1.766663 0,-2.666656c0,-0.899994 0,-1.799988 0,-2.700012c0,-0.900146 0,-1.685333 0,-2.625336c0,-1.007996 0,-1.763977 0,-2.674652c0,-0.899994 0,-1.799988 0,-2.700012c0,-0.900146 0,-1.685333 0,-2.625336c0,-1.007996 0,-1.763977 0,-2.674652c0,-0.899994 0,-1.799988 0,-2.700012c0,-0.899994 0,-1.799988 0,-2.599976c0,-0.900024 0,-1.800018 0,-2.700012c0,-0.899994 0,-1.799988 0,-2.700012c0,-0.899994 0,-1.799988 0,-2.599976c0,-0.900024 0,-1.800018 0,-2.700012l0,-0.899994l0,-0.899994l0,-0.900024" id="svg_14" stroke-linecap="null" stroke-linejoin="null" stroke-dasharray="null" stroke-width="5" stroke="#000000" fill="none"/>
  <path d="m60,373c1.799999,0 2.719761,-0.157074 3.5,0.020844c0.962021,0.219391 1.59388,0.918274 2.5,0.979156c0.798203,0.053619 1.699997,0 2.599998,0c0.900002,0 1.800003,0 2.700005,0c0.901329,0 1.866661,0 2.535995,0c1.164001,0 1.953331,0 2.678665,0c0.9645,0 1.885338,0 2.785339,0c0.901329,0 1.866661,0 2.699997,0c0.833336,0 1.695503,0 2.599998,0c0.900002,0 1.800003,0 2.700005,0c0.899994,0 1.799995,0 2.699997,0c0.800003,0 1.699997,0 2.636002,0c0.848,0 1.711334,0 2.611328,0c0.919334,0 1.75267,0 2.731171,0c0.820168,0 1.721497,0 2.621498,0c0.900002,0 1.800003,0 2.700005,0c0.899994,0 1.800163,0 2.585327,0c0.940002,0 1.948006,0 2.740005,0c0.858665,0 1.725616,0.076233 2.621994,-0.004486c0.929764,-0.08371 1.760536,-0.534241 2.354004,-0.711517c0.977051,-0.29187 1.91333,-0.283325 2.877831,-0.283997c0.931503,-0.000641 1.842171,0 2.695503,0c0.940002,0 1.825333,0 2.625336,0c0.899994,0 1.799995,0 2.699997,0c0.900002,0 1.804497,0 2.666664,0c0.854164,0 1.833336,0 2.622673,0c1.043991,0 1.800003,0 2.731491,0c0.800674,0 1.689835,0 2.679001,0c0.779343,0 1.778671,0 2.598831,0c0.901337,0 1.801346,0 2.70134,0c0.899994,0 1.800003,0 2.699997,0c0.900009,0 1.800003,0 2.600006,0c0.899994,0 1.800003,0 2.699997,0c0.899994,0 1.959534,0.182159 2.47467,-0.436005c0.527679,-0.633209 0.937363,-1.551331 1.020828,-2.321167c0.097015,-0.894775 0.004501,-1.647339 0.004501,-2.642822c0,-0.800018 0,-1.799835 0,-2.764008c0,-0.950653 -0.017212,-1.836182 0,-2.635986c0.018005,-0.836578 0.318649,-1.670227 0.647339,-2.547333c0.330917,-0.883026 0.352661,-1.752686 0.352661,-2.652679c0,-0.757172 0,-1.825348 0,-2.515991c0,-0.963165 0,-1.884003 0,-2.788513c0,-1.016998 0,-1.716339 0,-2.695496c0,-0.789337 -0.000076,-1.833344 0,-2.661346c0.000092,-0.881317 -0.085068,-1.601349 0.085327,-2.570648c0.172226,-0.979736 0.731583,-1.629974 0.878677,-2.604004c0.114395,-0.757507 0.035995,-1.759491 0.035995,-2.506836c0,-1.021179 0,-1.96167 0,-2.823822c0,-0.833344 0,-1.811829 0,-2.632019c0,-0.837311 0,-1.854004 0,-2.548645c0,-1.016693 0,-1.952667 0,-2.854004c0,-0.965332 0,-1.624023 0,-2.632019c0,-0.862152 0,-1.6875 0,-2.650665c0,-0.863312 0,-1.75882 0,-2.716003c0,-0.899994 0,-1.799988 0,-2.599976c0,-0.900024 0,-1.800018 0,-2.700012c0,-0.910675 0,-1.82132 0,-2.5c0,-1.114655 0,-2 0,-2.799988c0,-0.835999 0,-1.852692 0,-2.547333c0,-1.016693 0,-1.952667 0,-2.852692c0,-0.899994 0,-1.799988 0,-2.557159c0,-0.899994 0,-1.647339 0,-2.64151c0,-0.944153 0,-1.844147 0,-2.802643c0,-0.965332 0,-1.624023 0,-2.632019c0,-0.862152 0,-1.766663 0,-2.666656c0,-0.899994 0,-1.799988 0,-2.701324c0,-0.965332 0,-1.624023 0,-2.632019c0,-0.862152 0,-1.766663 0,-2.666656c0,-0.899994 0,-1.799988 0,-2.700012c0,-0.899994 0,-1.799988 0,-2.599976c0,-0.900024 0,-1.800018 0,-2.700012c0,-0.899994 0,-1.799988 0,-2.700012c0,-0.899994 0,-1.799988 0,-2.599976c0,-0.900024 0,-1.800018 0,-2.700012c0,-0.910675 0,-1.82132 0,-2.5c0,-1.114655 0,-2 0,-2.799988c0,-0.900024 0,-1.800018 0,-2.700012c0,-0.899994 0,-1.799988 0,-2.699997c0,-0.900009 0,-1.800003 0,-2.600006c0,-0.899994 0,-1.800003 0,-2.699997c0,-0.899994 0,-1.800003 0,-2.699997c0,-0.900177 0,-1.685333 0,-2.625336c0,-0.690674 0,-1.764008 0,-2.695496c0,-0.800507 0,-1.653839 0,-2.593842c0,-0.985336 0,-1.88533 0,-2.685333c0,-0.899994 0,-1.800003 0,-2.699997c0,-0.899994 0,-1.800003 0,-2.699997c0,-0.900009 0,-1.800003 0,-2.600006c0,-0.899994 0,-1.800003 0,-2.699997c0,-0.899994 0,-1.800003 0,-2.699997c0,-0.900009 -0.321777,-1.937897 0.166672,-2.633331c0.502319,-0.715179 0.833328,-1.266678 0.833328,-2.166672c0,-0.800003 0,-1.699997 0,-2.636002c0,-0.847992 0,-1.711334 0,-2.727997c0,-0.835999 -0.183273,-1.790283 0.166672,-2.636002c0.324661,-0.784622 0.822906,-1.499817 0.833328,-2.399994c0.010406,-0.899948 0,-1.800003 0,-2.700012c0,-0.899994 0,-1.699997 0,-2.599991c0,-0.900009 -0.289093,-1.851974 0.010666,-2.689331c0.263748,-0.736755 0.986694,-1.42868 0.188004,-1.609344c-0.876526,-0.198273 -1.798676,-0.001328 -2.698669,-0.001328c-0.899994,0 -1.800003,0 -2.699997,0c-0.900177,0 -1.685333,0 -2.625336,0c-1.007996,0 -1.764008,0 -2.674667,0c-0.899994,0 -1.800003,0 -2.699997,0c-0.900177,0 -1.685333,0 -2.625336,0c-1.007996,0 -1.764008,0 -2.674667,0c-0.899994,0 -1.800003,0 -2.699997,0c-0.90033,0 -1.614334,0 -2.573334,0c-0.809998,0 -1.449997,0 -2.559998,0c-0.834671,0 -1.717339,0 -2.616005,0c-0.882668,0 -2.107574,0.006668 -2.831833,-0.004501c-0.656456,-0.010132 -1.540604,-0.036423 -2.538834,-0.279495c-0.751328,-0.182953 -1.614944,-0.47287 -2.765167,-0.594498c-0.918121,-0.097092 -1.405334,-0.093216 -2.377502,-0.11084c-0.915901,-0.016602 -2.029831,-0.010666 -2.933167,-0.010666c-0.908661,0 -1.786278,-0.138229 -2.583328,0.020828c-0.952873,0.190155 -1.019501,1.036499 -1.020836,2.033844c-0.000862,0.642654 0,1.70166 0,2.778656c0,0.678665 0,1.604172 0,2.394669c0,1.110672 0,2.093506 0,2.792831c0,0.979172 0,1.779175 0,2.579178c0,0.995499 0,1.914658 0,2.879166c0,0.820831 0,1.722168 0,2.6875c0,0.833328 0,1.811996 0,2.585999c0,0.899994 0,1.763336 0,2.621994c0,0.946838 0,1.835999 0,2.825165c0,0.779343 0,1.778671 0,2.495667c0,0.90451 0,1.804504 0,2.704498c0,0.900009 0,1.801346 0,2.766678c0,0.833328 0,1.811829 0,2.528824c0,0.90451 0,1.804504 0,2.725845c0,0.911987 -0.028717,1.843307 0.057167,2.630493c0.112747,1.033417 0.406235,1.688004 0.658836,2.461502c0.31076,0.951584 0.283997,1.886658 0.283997,2.791168c0,0.862167 0,1.695496 0,2.673996c0,0.82016 0,1.721497 0,2.621506c0,0.899994 0,1.810654 0,2.721329c0,0.853333 0,1.794662 0,2.562668c0,0.941345 0,1.949341 0,2.705322c0,0.910675 0,1.810669 0,2.710663c0,0.900024 0,1.800354 0,2.514343c0,0.955017 0,1.706512 0,2.502991c0,1.221008 0,2.021027 0,2.925507c0,0.958496 0,1.923828 0,2.757172c0,0.833344 0,1.695496 0,2.600006c0,0.899994 0,1.799988 0,2.699982c0,0.900024 0,1.800171 0,2.585358c0,0.940002 0,1.947998 0,2.73999c0,0.859985 0,1.585327 0,2.773346c0,0.76532 0.033348,1.716614 0,2.601318c-0.028603,0.758789 -0.387489,1.638916 -0.647331,2.347321c-0.366707,0.999725 -0.352669,1.957184 -0.352669,2.819336c0,0.833344 0,1.811829 0,2.632019c0,0.901337 0,1.801331 0,2.701324c0,0.804504 0,1.821503 0,2.520844c0,0.979156 0,1.768494 0,2.8125c0,0.862152 0,1.766663 0,2.666656c0,0.899994 0,1.799988 0,2.701324c0,0.684021 0,1.624023 0,2.632019c0,0.862152 0,1.766663 0,2.666656c0,0.899994 0,1.799988 0,2.700012c0,0.899994 0,1.799988 0,2.599976c0,0.900024 0,1.800018 0,2.700012c0,0.899994 0,1.799988 0,2.700012c0,0.899994 0,1.799988 0,2.599976c0,0.900024 0,1.800018 0,2.610687c0,0.910645 0,1.763977 0,2.703979l0,0.985352l0,0.899994l0,0.799988" id="svg_15" stroke-linecap="null" stroke-linejoin="null" stroke-dasharray="null" stroke-width="5" stroke="#000000" fill="none"/>
  <path d="m246,300c1.800003,0 2.699997,0 3.600006,0c0.810654,0 1.721329,0 2.574661,0c0.94133,0 1.709335,0 2.650665,0c1.007996,0 1.836014,0 2.717667,0c0.729004,0 1.56601,0 2.756653,0c0.879028,0 1.686005,0 2.557526,0c0.890991,0 1.795502,0 2.658813,0c0.963165,0 1.884003,0 2.783997,0c0.900024,0 1.800018,0 2.700012,0c0.799988,0 1.700012,0 2.600006,0c0.899994,0 1.799988,0 2.601318,0c0.965332,0 1.798676,0 2.777344,0c0.773987,0 1.678497,0 2.425842,0c0.994171,0 1.938324,0 2.838318,0c0.957184,0 1.857178,0 2.757172,0c0.799988,0 1.700012,0 2.583344,0c1.083313,0 1.75531,0 2.539337,0c0.847992,0 1.711975,0 2.934143,0c0.724335,0 1.380676,0 2.255188,0c1.226318,0 2.026337,0 2.935333,0c0.919312,0 1.752655,0 2.73114,0c0.82019,0 1.721527,0 2.621521,0c0.899994,0 1.799988,0 2.699982,0c0.800171,0 1.585358,0 2.52536,0c1.007996,0 1.799988,0 2.659973,0c0.919189,0 1.914673,0 2.714691,0c0.999817,0 1.779144,0 2.778473,0c0.82019,0 1.721527,0 2.542358,0c0.963165,0 1.653809,0 2.726501,0c0.919312,0 1.752655,0 2.731323,0c0.773987,0 1.674011,0 2.537323,0c0.963165,0 1.788513,0 2.805328,0c0.67868,0 1.657349,0 2.562683,0c0.941345,0 1.631989,0 2.705322,0c0.82135,0 1.731995,0 2.585327,0c0.940002,0 1.925354,0 2.825348,0c0.799988,0 1.700012,0 2.600006,0c0.899994,0 1.836609,-0.249084 2.695496,0.004486c0.748962,0.2211 0.120728,0.680115 -0.684845,1.006195c-0.735626,0.29776 -0.610657,1.475983 -0.610657,2.235992c0,0.919983 0,1.701508 0,2.7435c0,0.866821 0,1.807159 0,2.709839c0,0.862488 0,1.799988 0,2.662476c0,0.658356 0,1.670837 0,2.594666c0,0.781525 0,1.725525 0,2.725525c0,0.796478 0,1.547974 0,2.655975c0,0.983002 0,1.703003 0,2.828003c0,0.786011 0,1.608002 0,2.666687c0,0.709503 0,1.562164 0,2.569336c0,0.638977 0,1.930664 0,2.563995c0,0.67334 0,1.670837 0,2.768829c0,0.832489 0,1.764496 0,2.569c0,1.016815 0,1.695496 0,2.674164c0,0.905334 0,1.84668 0,2.537323c0,1.073334 0,1.905334 0,2.817352c0,0.927979 0,1.718475 0,2.745148c0,0.685516 0,1.520172 0,2.521515c0,0.799988 0,1.799988 0,2.600006c0,1.000641 0,1.883331 0,2.741333c0,1.143982 0,1.594666 0,2.559998c0,0.997314 0,1.487976 0,2.832001c0,0.725311 0,1.583313 0,2.666656c0,0.799988 0,1.600006 0,2.604492c0,0.852661 0,1.817688 0,2.674164c0,0.676025 0,1.46402 0,2.906677c0,0.550659 0,1.125336 0,2.314667c0,0.598663 0,1.764008 0,2.833344c0,0.926666 0,1.733337 0,2.459991c0,0.686676 0,2.090668 0,2.832001c0,0.749329 0,1.490662 0,2.553162c0,0.985504 0,1.916992 0,2.821503c0,0.899994 0,1.5 0,2.399994c0,1.200012 0,1.800018 0,2.700012c0,1.200165 0,1.804504 0,2.735992c0,0.649323 0,2.045349 0,2.768005c0,0.698669 0,1.895996 0,2.698669c0,1.018829 0,1.71817 0,2.697327c0,0.799988 0,1.600006 0,2.59549c0,0.919189 0,1.800507 0,2.90451c0,0.552002 0,1.5 0,2.141998c0,1.306 0,2.033997 0,3.122162c0,0.598328 0,1.595825 0,2.269165c0,1.194672 0.100342,2.115417 -0.000153,2.945007c-0.111481,0.92038 -0.957153,1.307068 -0.999847,2.355011c-0.027893,0.684906 0,1.523987 0,2.154663c0,1.397339 0,2.14798 0,2.922668c0,0.790649 0,1.989319 0,2.789337c0,0.799988 0,1.599976 0,2.799988c0,0.79599 0,1.567993 0,2.291992c0,1.208008 0,2.010681 0,2.874664c0,0.854187 0,1.833344 0,2.622681c0,1.044006 0,1.799988 0,2.710663c0,0.910675 0,1.82132 0,2.674652c0,0.940002 0,1.825348 0,2.625336l-0.085327,0.914673l-0.793182,0.506836l-0.12149,0.87851" id="svg_16" stroke-linecap="null" stroke-linejoin="null" stroke-dasharray="null" stroke-width="5" stroke="#000000" fill="none"/>
  <path d="m344,446c1.700012,0 2.700012,0 3.600006,0c0.810669,0 1.721313,0 2.574646,0c0.940002,0 1.926086,-0.036652 2.825348,0c0.701752,0.028595 1.443176,0.623383 2.30899,0.947327c0.98114,0.367096 1.696869,0.419647 2.476349,0.62735c1.04306,0.277924 1.756348,0.392578 2.610168,0.420837c1.002625,0.033173 1.768494,0.004486 2.851837,0.004486c0.919312,0 1.752655,0 2.585999,0c0.862152,0 1.766663,0 2.666656,0c0.899994,0 1.799988,0 2.700012,0c0.90033,0 1.614319,0 2.567993,0c0.981323,0 1.898651,0 2.711151,0c1.004852,0 1.695496,-0.000092 2.763672,0c0.857178,0.000092 1.709137,0.245483 2.457184,0.647339c0.779968,0.418976 1.621307,0.352661 2.47464,0.352661c0.940002,0 1.925354,0 2.825348,0c0.799988,0 1.700012,0 2.635986,0c0.849335,0 1.574677,0 2.564026,0c0.799988,0 1.799988,0 2.599976,0c0.800018,0 1.800018,0 2.600006,0c0.998688,0 1.942841,0 2.842834,0c0.958496,0 1.923828,0 2.58252,0c1.007996,0 1.870148,0 2.774658,0c0.899994,0 1.799988,0 2.704498,0c0.862152,0 1.695496,0 2.674164,0c0.773987,0 1.678497,0 2.425842,0c0.996826,0 1.831482,0 3.016815,0c0.804016,0 1.353333,0 2.657166,0c0.685516,0 1.520172,0 2.516998,0c0.747345,0 1.789856,0 2.737854,0c0.676483,0 1.451996,0 2.744995,0c0.674988,0 1.755005,0 2.510986,0c0.910675,0 1.810669,0 2.715179,0c0.862152,0 1.716339,0 2.695496,0c0.799988,0 1.600006,0 2.600006,0c0.799988,0 1.799988,0 2.600006,0c1,0 1.799988,0 2.799988,0c0.810669,0 1.457153,0 2.682678,0c0.796478,0 1.547974,0 2.645325,0c0.872009,0 1.772003,0 2.671997,0c0.799988,0 1.700012,0 2.600006,0c0.899994,0 1.799988,0 2.699982,0c0.901337,0 1.866669,0 2.52536,0c1.007996,0 1.799988,0 2.827332,0c0.694641,0 1.711334,0 2.651825,0c0.862152,0 1.695496,0 2.673981,0c0.82019,0 1.721527,0 2.621521,0c0.899994,0 1.799988,0 2.699982,0c0.900024,0 1.800018,0 2.700012,0c0.799988,0 1.700012,0 2.600006,0c0.899994,0 1.799988,0 2.699982,0c0.900024,0 1.800018,0 2.700012,0c0.757172,0 1.657166,-0.000519 2.40451,0c0.995483,0.000671 1.813538,-0.043335 2.795319,0.221344c0.799103,0.215454 1.7724,0.713562 2.552826,0.77417c0.901794,0.070038 1.651855,0.004486 2.646027,0.004486c0.944153,0 1.844147,0 2.801331,0c0.899994,0 1.799988,0 2.599976,0c0.900024,0 1.720856,0 2.685333,0c0.725342,0 1.714691,0 2.514679,0c1,0 1.789337,0 2.833344,0c0.863983,0 1.666656,0 2.529144,0c0.658356,0 1.670837,0 2.86554,0c0.709473,0 1.750793,0 2.433289,0c1.106689,0 1.838684,0 2.570679,0c1.106689,0 2.089355,0 2.768005,0c0.978638,0 1.883972,0 2.825317,0c0.690674,0 1.71637,0 2.674683,0c0.867004,0 1.541687,0 2.256348,0c1.421997,0 2.08197,0 2.997009,0c1.079956,0 1.78949,0 2.642151,0c1.003174,0 1.768494,-0.000153 2.719177,0c0.985168,0.000183 1.783386,0.323029 1.864502,1.041656c0.107544,0.952515 0.020813,1.758331 0.020813,2.55835c0,0.995483 0,1.914673 0,2.87915c0,0.920837 0,1.820831 0,2.720856c0,0.899994 0,1.799988 0,2.599976c0,0.900024 0.005432,1.800049 0,2.700012c-0.005371,0.889404 -0.5,1.5 -0.989319,2.110657l-0.010681,0.889343" id="svg_17" stroke-linecap="null" stroke-linejoin="null" stroke-dasharray="null" stroke-width="5" stroke="#000000" fill="none"/>
  <path d="m559,463c0,-1.825348 0,-2.833344 0,-3.695496c0,-0.825348 0,-1.788513 0,-2.651825c0,-0.895508 0,-1.852692 0,-2.752686c0,-0.899994 0,-1.699982 0,-2.600006c0,-0.899994 0,-1.799988 0,-2.699982c0,-0.899994 0,-1.800018 0,-2.700012c0,-0.899994 0,-1.699982 0,-2.600006c0,-0.899994 0,-1.799988 0,-2.699982c0,-0.899994 0,-1.800018 0,-2.700012c0,-0.899994 0,-1.699982 0,-2.600006c0,-0.899994 0,-1.799988 0,-2.699982c0,-0.899994 0,-1.800018 0,-2.700012c0,-0.899994 0.417664,-1.454407 0.878479,-2.12149c0.504089,-0.729706 0.121521,-1.778503 0.121521,-2.578491c0,-0.900024 0,-1.800018 0,-2.700012c0,-0.899994 0,-1.799988 0,-2.700012c0,-0.899994 0,-1.799988 0,-2.599976c0,-0.900024 0,-1.800018 0,-2.700012l0,-0.899994" id="svg_18" stroke-linecap="null" stroke-linejoin="null" stroke-dasharray="null" stroke-width="5" stroke="#000000" fill="none"/>
  <path d="m277,106c1.799988,0 2.635986,0 3.484009,0c0.863312,0 1.890656,0 2.837494,0c0.699341,0 1.678497,0 2.467834,0c1.044006,0 1.906158,0 2.731506,0c0.963165,0 1.653809,0 2.726501,0c0.919312,0 1.773499,0 2.752655,0c0.789337,0 1.514679,0 2.5,0c0.985321,0 1.710846,-0.018997 2.699677,0.000168c0.928833,0.017998 1.503387,0.630463 2.321167,0.978996c0.80899,0.344788 1.779144,0.020836 2.679169,0.020836c0.899994,0 1.799988,0 2.599976,0c0.900024,0 1.720856,0 2.684021,0c0.863312,0 1.767822,0 2.485321,0c1.036011,0 1.779999,0 2.887665,0c0.834015,0 1.743011,0 2.663849,0c0.800476,0 1.653809,0 2.595154,0c1.050659,0 1.720001,0 2.485321,0c0.994171,0 1.913361,0 2.877838,0c0.942169,0 1.854187,0 2.53067,0c0.775513,0 1.823517,0 2.775513,0c0.724487,0 1.85733,0 2.519989,0c1.044006,0 1.726685,0 2.924011,0c0.729004,0 1.77066,0 2.59198,0c0.693024,0 1.82135,0 2.484009,0c1.044006,0 1.726685,0 2.924011,0c0.729004,0 1.77124,-0.022171 2.59198,0.010666c0.694031,0.027771 1.822235,0.206253 2.484009,0.342003c0.695648,0.142693 1.721619,0.395363 2.652344,0.525833c0.80957,0.113487 1.661987,0.119247 2.708984,0.121498c0.876007,0.001884 1.888,0 2.4375,0c0.574524,0 1.786499,0 3.0625,0c0.654175,0 1.313354,0 2.626678,0c0.644165,0 1.273346,0 1.882507,0c1.657501,0 2.582825,0 3.380157,0c0.701324,0 1.944,0 2.544006,0c0.899994,0 1.799988,0 2.699982,0c0.900024,0 1.800018,0 2.700012,0c0.899994,0 1.799988,0 2.399994,0c1.201324,0 2.12085,0 2.757172,0c1.009491,0 2.09549,0 2.842834,0c0.747345,0 1.833344,0 2.521332,0c1.062012,0 1.860016,0 2.304016,0c1.581665,0 2.197327,0 2.846985,0c0.675659,0 2.072998,0 2.778656,0c0.699677,0 2.049011,0 2.684998,0c1.206024,0 1.788025,0 2.364014,0c1.15799,0 1.752014,-0.000618 3,0c1.355988,0.000671 2.071533,0.002617 2.808014,0.010666c0.754517,0.00824 1.524078,0.021996 2.305481,0.046501c0.790619,0.024788 2.38681,0.105331 3.185669,0.164169c0.794464,0.058517 1.578522,0.129349 2.347504,0.203995c0.749359,0.072739 1.473175,0.150803 2.167511,0.222c1.852081,0.189911 2.377777,0.242226 3.304474,0.295502c0.797516,0.045853 1.516022,0.054916 2.902679,0.057167c0.731323,0.00119 1.478668,0 2.226013,0c1.085999,0 2.09549,0 2.731812,0c0.919525,0 2.12085,0 2.720856,0c0.899994,0 2.099823,0 2.695496,0c0.8685,0 1.937836,0 2.656311,0c0.958008,0 2.090851,0 2.75351,0c0.694672,0 1.726685,0 2.651672,0c1.001343,0 1.64032,0 2.643005,0c0.799988,0 1.799988,0 2.600006,0c1,0 1.799988,0 2.799988,0c0.789337,0 1.833344,0 2.625336,0c1.027344,0 1.721985,0 2.749329,0c0.947174,0 1.687836,0 2.397339,0c1.194672,0 1.868011,0 2.865509,0c0.862488,0 1.841644,0 2.695831,0c0.927979,0 1.718475,0 2.745148,0c0.685516,0 1.520172,0 2.516998,0c0.919189,0 1.789856,0 2.737854,0c0.917328,0 1.661316,0 2.695984,0c0.970673,0 1.727844,0 2.632324,0c0.800018,0 1.759521,0 2.553009,0c0.775513,0 1.975494,0 2.667999,0c0.942688,0 1.950684,0 2.778687,0c0.8815,0 1.599976,0 2.390472,0c1.261505,0 2.101501,0 3.064178,0c0.768005,0 1.709351,0 2.399994,0c1.073334,0 1.984009,0 2.884003,0c0.899994,0 1.800018,0 2.700012,0c0.899994,0 1.714325,0 2.67334,0c0.809998,0 1.449982,0 2.559998,0c0.833313,0 1.706665,0 2.579987,0c0.833344,0 1.921997,0 2.768005,0c0.829346,0 1.818665,0 2.640167,0c0.88916,0 1.878845,0 2.720184,0c0.729004,0 1.60083,0 2.598328,0c0.67334,0 1.859985,0 2.67334,0c1.019958,0 1.691956,0 2.681335,0c0.862488,0 1.753479,0 2.657959,0c0.863342,0 1.847351,0 2.668823,0c0.889221,0 1.87854,0 2.678528,0c1,0 1.789307,0 2.514648,0c0.985352,0 1.972046,0 2.731995,0c0.920044,0 1.701538,0 2.74353,0c0.866821,0 1.80719,0 2.645813,0c1.016663,0 1.711365,0 2.728027,0c0.935974,0 1.835999,0 2.735962,0c0.900024,0 1.657166,0 2.552673,0c0.863342,0 1.826538,0 2.747375,0c0.90448,0 1.766663,0 2.599976,0c0.978516,0 1.798645,0 2.700012,0c0.820801,0 1.783997,0 2.647339,0c0.899963,0 1.819336,0 2.673462,0c0.979187,0 1.768494,0 2.493835,0c1.074707,0 1.89624,-0.019859 2.806519,0.000168c0.818115,0.017998 1.657959,0.54081 1.678833,1.486496c0.016724,0.759819 0,1.68 0,2.470505c0,0.8535 0,2.042831 0,2.641495c0,0.880501 -0.019165,1.716209 0.001343,2.716003c0.017944,0.875168 0.21582,1.88678 0.498657,2.685333c0.212891,0.601105 0.467163,1.603348 0.495483,2.457169c0.032043,0.96431 0.004517,1.810829 0.004517,2.461494c0,0.73867 0,2.045837 0,3.052834c0,0.536499 0,1.660507 0,2.242004c0,0.5905 0,2.386337 0,2.985168c0,0.596832 0,1.780502 0,2.365326c0,0.578842 0,2.269333 0,2.814178c0,1.055664 0,1.564499 0,2.539154c0,0.910675 0,2.139832 0,2.872833c0,0.689011 0,1.692505 0,2.731339c0,0.735672 0,1.499329 0,2.283005c0,1.195496 0,1.994156 0,2.784836c0,1.153488 0,2.243988 0,2.930664c0,0.686661 0,1.41333 0,2.220001c0,1.444992 0,1.993332 0,3.139999c0,0.578323 0,1.694992 0,2.213333c0,1.277832 0,2.30249 0,3.228333c0,0.720001 0,1.845001 0,2.626495c0,0.790497 0,1.718506 0,2.630493c0,0.921341 0,1.821335 0,2.725845c0,0.862167 0,1.716324 0,2.695496c0,0.810669 0,1.457169 0,2.686661c0,0.560013 0,1.475006 0,2.480011c0,1.076996 -0.000061,1.791656 0,2.466324c0.000122,1.102676 -0.017883,1.988022 0.283997,2.850998c0.309326,0.88414 0.683716,1.77533 0.711487,2.44017c0.044312,1.06076 0.004517,1.800003 0.004517,2.638336c0,0.898331 0,1.357498 0,2.716171c0,0.868668 0,1.721329 0,2.57399c0,1.314011 0,1.768509 0,2.695511c0,0.931 0,1.841995 0,2.282501c0,1.599991 0,2.307999 0,2.983994c0,1.352005 0,2.066666 0,2.789337c0,0.698669 0,1.895996 0,2.854324c0,0.863342 0,1.583344 0,2.708344c0,0.785995 0,1.608002 0,2.666656c0,0.723007 0,1.464005 0,2.666672c0,0.754669 0,1.597336 0,2.496002c0,0.460327 0,1.837326 0,2.716003c0,0.830658 0,1.605331 0,2.315994c0,1.202667 0,2.186661 0,3.138672c0,0.781494 0,1.571991 0,2.690323c0,0.721664 0,1.643005 0,2.542999c0,0.90451 0,1.766678 0,2.620834c0,0.979172 0.056702,1.788345 -0.085327,2.579178c-0.18219,1.014542 -0.678772,1.712723 -0.857483,2.647324c-0.172974,0.904724 -0.05719,1.773499 -0.05719,2.75267c0,0.789337 0,1.833328 0,2.520828c0,1.022003 0,1.740509 0,2.531006c0,1.026505 0,1.906494 0,2.927002c0,0.830994 0,1.790497 0,2.542007c0,0.796478 0,1.79248 0,2.632477c0,0.96402 0,1.81601 0,2.856506c0,0.775513 0,1.823517 0,2.528503c0,0.800018 0,1.836334 0,2.783325c0,0.720001 0,1.845001 0,2.635498c0,0.853516 0,1.444183 0,2.644165c0,0.919525 -0.002075,1.555847 0,2.565338c0.002258,1.095001 0.011902,1.875458 0.05719,2.695007c0.023499,0.425262 0.158325,1.760498 0.295471,2.69101c0.069763,0.473114 0.236267,1.419952 0.363342,2.363312c0.183105,1.359711 0.210022,1.796783 0.247986,2.63736c0.036133,0.799561 0.036011,2.279999 0.036011,2.962646c0,0.658661 0,1.636688 0,2.650665c0,0.717346 0,1.833344 0,2.580688c0,1.085999 0,1.764648 0,2.690155c0,0.790497 0,1.901154 0,2.884155c0,0.720001 0,1.845001 0,2.631012c0,0.821991 0,1.363342 0,2.590179c0,0.852661 0,1.857147 0,2.657166c0,1 0,1.799988 0,2.799988c0,0.789337 0,1.514679 0,2.479156c0,0.931519 0,1.842346 0,2.731506c0,0.989502 0,1.810181 0,2.47467c0,0.998657 0,1.814667 0,2.630676c0,1.001312 0,1.945313 0,3.017334c0,0.634644 0,1.666656 0,2.361328c0,0.971985 0,2.033325 0,2.69632c0,1.00769 0,1.77301 0,2.851837c0,0.857178 0,1.757172 0,2.557159c0,0.900024 0,1.800018 0,2.700012c0,0.899994 0,1.799988 0,2.700012c0,0.899994 0.005066,1.799988 0,2.685333c-0.005371,0.929382 -0.427673,1.554321 -0.878479,2.336151c-0.443054,0.76828 -0.094421,1.778961 -0.121521,2.578491c-0.028625,0.844299 -0.91626,1.354309 -1,2.200012c-0.078857,0.796082 0,1.700012 0,2.600006c0,0.899994 0,1.799988 0,2.699982c0,0.900024 0,1.800018 0,2.700012c0,0.799988 -0.05719,1.700012 -0.5,2.5c-0.44281,0.799988 -0.5,1.700012 -0.5,2.600006c0,0.899994 0,1.699982 0,2.600006c0,0.899994 0,1.799988 0,2.699982c0,0.899994 0,1.800018 0,2.700012c0,0.899994 0,1.699982 0,2.600006c0,0.899994 0.002258,1.799988 0,2.699982c-0.002258,0.899994 -0.336914,1.631256 -0.716003,2.399994c-0.416809,0.845215 -0.283997,1.800018 -0.283997,2.700012c0,0.899994 0.075806,1.823578 -0.166687,2.666656c-0.195618,0.680084 -0.739746,1.655212 -0.822632,2.422668c-0.097839,0.905457 -0.010681,1.810669 -0.010681,2.710663c0,0.900024 0.088684,1.804413 0,2.700012c-0.08374,0.845703 -0.957275,1.282349 -1,2.200012c-0.04187,0.899017 0,1.799988 0,2.599976c0,0.900024 0,1.800018 0,2.700012c0,0.899994 0,1.799988 0,2.700012c0,0.899994 0,1.799988 0,2.599976c0,0.900024 0.00531,1.800049 0,2.700012c-0.005371,0.900055 -0.283997,1.700012 -0.833313,2.5l-0.16217,0.700012l-0.004517,0.899994" id="svg_19" stroke-linecap="null" stroke-linejoin="null" stroke-dasharray="null" stroke-width="5" stroke="#000000" fill="none"/>
  <path d="m559,418c0,-1.700012 -0.178101,-2.622009 0.020813,-3.5c0.218018,-0.962341 0.807251,-1.608276 0.979187,-2.5c0.17157,-0.889709 0.759583,-1.31366 1.001343,-2.198669c0.217957,-0.79776 0.962646,-1.237335 0.998657,-2.101318l0,-0.900024" id="svg_20" stroke-linecap="null" stroke-linejoin="null" stroke-dasharray="null" stroke-width="5" stroke="#000000" fill="none"/>
  <path d="m278,136c1.799988,0 2.700012,0 3.600006,0c0.899994,0 1.799988,0 2.699982,0c0.900024,0 1.800018,0 2.700012,0c0.799988,0 1.700012,0 2.600006,0c0.899994,0 1.799988,-0.000671 2.699982,0c0.898682,0.000671 1.376617,0.568863 2.136017,0.964005c0.76709,0.399155 1.764008,0.035995 2.664001,0.035995c0.899994,0 1.699982,0 2.600006,0c0.899994,0 1.834717,-0.052872 2.599976,0.352661c0.846039,0.448334 1.585358,0.646667 2.536011,0.647339c0.76532,0.000534 1.759491,0 2.506836,0c1.03183,0 1.982758,-0.057938 2.657166,0.020828c0.992065,0.115875 1.649353,0.779953 2.520844,0.958344c0.947723,0.194 1.76181,0.01973 2.8125,0.020828c0.633331,0.000671 1.648224,-0.009827 2.304169,0.057159c1.104614,0.112793 1.929718,0.634918 2.846497,0.857513c0.675049,0.16391 1.75882,0.085327 2.61615,0.085327c0.785187,0 1.725189,0 2.733185,0c0.791992,0 1.651978,0 2.571167,0c0.995483,0 1.795502,0 2.795502,0c0.799988,0 1.799988,0 2.610657,0c0.646484,0 1.610992,0 2.436005,0c0.914978,0 1.919983,0 2.634674,0c1.076996,0 1.751648,0 2.854309,0c0.868347,0 1.749664,0 2.668854,0c0.998169,0 1.637146,0 2.36615,0c1.198669,0 1.890686,0 2.614685,0c1.447998,0 2.130646,0 2.789307,0c0.978027,0 1.992004,0 2.708008,0c1.096497,0 1.807495,0 2.783997,0c1.05069,0 1.848633,-0.065796 2.718689,0.010666c0.957062,0.084106 1.617554,0.350311 2.363983,0.563995c1.104401,0.316177 1.99884,0.42308 2.939331,0.425339c0.774017,0.001846 1.51001,0 2.477997,0c1.223999,0 1.911011,0 2.632019,0c0.742981,0 1.496002,0 2.246979,0c0.737,0 2.121002,0 3.327667,0c0.540833,0 1.522522,0 2.404175,0c1.222504,0 2.025177,0 2.843842,0c0.850647,0 1.292999,-0.000916 2.712006,0c1.031982,0.000671 1.563141,-0.002853 2.625,0.020828c0.519073,0.011581 1.510284,0.008881 2.755646,0.2005c0.662537,0.101944 1.421906,0.439972 2.486359,0.657166c0.8302,0.169403 1.570313,0.120834 2.771637,0.121506c0.710693,0.000397 1.485352,0 2.31601,0c1.333008,0 1.793335,0 2.716003,0c0.898682,0 1.741333,0 2.831665,0c0.867004,0 1.608002,0 2.586182,0c0.83548,0 1.796997,0 2.911499,0c0.835999,0 1.276489,0 2.1875,0c0.931,0 2.3125,0 2.757477,0c0.860016,0 1.680023,0 2.460022,0c1.440155,0 2.104492,0 3.050995,0c0.609344,0 1.811981,0 2.731506,0c0.636322,0 1.645813,0 2.731812,0c0.747345,0 1.49469,0 2.580688,0c1.005005,0 1.625,0 2.47998,0c1,0 1.839996,0 2.929504,0c0.857178,0 1.757172,0 2.514343,0c0.899994,0 1.844147,0 2.842834,0c0.799988,0 1.798676,0 2.563995,0c0.953339,0 1.805328,0 2.604004,0c0.981323,0 1.898651,0 2.690338,0c0.94165,0 1.850647,0 2.875,0c0.676483,0 1.451996,0 2.5,0c0.930664,0 1.76532,0 2.766663,0c0.799988,0 1.802673,0 2.44165,0c0.729004,0 1.927673,0 2.61969,0c0.723999,0 2.171997,0 2.850647,0c0.925507,0 1.716003,0 2.682678,0c0.773315,0 1.815155,0 2.590668,0c1.048004,0 1.752991,0 2.727997,0c0.861328,0 1.808319,0 2.52832,0c1.125,0 1.915497,0 2.769012,0c0.590668,0 1.789337,0 2.689331,0c0.600006,0 1.799835,0 2.689331,0c0.853516,0 1.889343,0 2.585327,0c0.909332,0 1.910675,0 2.746185,0c0.583649,0 1.778809,0 2.657837,0c0.806976,0 1.850983,-0.022842 2.618652,0c0.961121,0.028595 1.843597,0.38208 2.549988,0.647339c0.886841,0.333023 1.819336,0.352661 2.673523,0.352661c0.979156,0 1.789825,0 2.43631,0c1.22818,0 1.778839,0 2.647339,0c1.19516,0 2.074188,0 2.881165,0c0.871338,0 1.811676,0 2.714355,0c0.899994,0 1.820831,0 2.62149,0c0.88916,0 1.878326,0 2.657654,0c0.999359,0 1.819489,0 2.720856,0c0.899963,0 1.799988,0 2.700012,0c0.899963,0 1.799988,0 2.700134,0c0.785156,0 1.725159,0 2.415833,0c1.109314,0 1.968018,0 2.83136,0l0.899963,0l0.919373,0l0.833313,0" id="svg_21" stroke-linecap="null" stroke-linejoin="null" stroke-dasharray="null" stroke-width="5" stroke="#000000" fill="none"/>
  <polyline id="svg_22" points="278,106 277,107 276.8333333333333,107.83333333333333 " stroke-linecap="round" stroke-linejoin="null" stroke-dasharray="null" stroke-width="5" stroke="#000000" fill="none"/>
  <path d="m527,142c0,6.688004 0,7.535995 0,8.5c0,0.804504 0,1.821335 0,2.5c0,0.9785 0,2 0,2.800003c0,0.899994 0,1.800003 0,2.699997c0,0.899994 0,1.800003 0,2.699997c0,0.900009 0,1.800003 0,2.600006c0,0.899994 0,1.800003 0,2.699997c0,0.899994 0,1.800003 0,2.699997c0,0.900009 0,1.800003 0,2.600006c0,0.899994 -0.046387,1.733322 0.425354,2.599991c0.398621,0.732407 0.574646,1.600006 0.574646,2.357178c0,0.899994 0,1.844162 0,2.838333c0,0.74733 0,1.768494 0,2.604492c0,0.900009 -0.173523,1.838257 0.085327,2.600006c0.301758,0.887909 0.896667,1.599457 0.914673,2.5c0.018005,0.899811 0,1.800003 0,2.699997c0,0.757172 0,1.652664 0,2.516006c0,0.963165 0,1.883987 0,2.783997c0,0.899994 0,1.800003 0,2.699997c0,0.800003 0,1.699997 0,2.600006c0,0.899994 0,1.799988 0,2.699997c0,0.899994 0,1.800003 0,2.699997c0,0.800003 0,1.699997 0,2.636002c0,0.847992 0,1.711334 0,2.606827c0,0.957169 0,1.857178 0,2.757172c0,0.757172 0,1.652664 0,2.516006c0,0.983994 0.000488,1.967987 0,2.658661c-0.000671,0.94133 -0.158752,1.995178 -0.425354,2.650665c-0.282288,0.694122 -0.569275,1.763962 -0.574646,2.574661c-0.005981,0.904495 0,1.921341 0,2.600006c0,0.9785 0,1.79866 0,2.699997c0,0.936005 0,1.783997 0,2.647339c0,1.016663 0,1.852661 0,2.75267c0,0.899994 0,1.785324 0,2.725327c0,0.690674 0,1.674667 0,2.658661c0,0.690674 0,1.763336 0,2.682678c0,0.833328 0,1.811829 0,2.528824c0,0.90451 0,1.804504 0,2.704498c0,0.900009 0,1.800003 0,2.700012c0,0.899994 0,1.699997 0,2.657166c0,0.895493 0,1.758835 0,2.617493c0,0.946655 0,1.799988 0,2.741333c0,0.768005 0,1.709351 0,2.717346c0,0.862152 0,1.666656 0,2.577332c0,0.910645 0,1.763977 0,2.703979c0,0.885345 0,1.685333 0,2.642517c0,0.895508 0,1.75882 0,2.721985c0,0.825348 0,1.842163 0,2.520844c0,0.978485 0,1.798676 0,2.700012c0,0.899994 0,1.799988 0,2.699982c0,0.90451 0,1.921326 0,2.600006c0,0.978485 0,1.798676 0,2.700012c0,0.899994 0,1.799988 0,2.699982c0,0.899994 0,1.801331 0,2.766663c0,0.833344 0,1.811829 0,2.528839c0,0.90451 0,1.804504 0,2.704498c0,0.899994 0,1.800018 0,2.700012c0,0.899994 0,1.699982 0,2.600006c0,0.899994 0,1.799988 0,2.699982c0,0.90451 0,1.921326 0,2.600006c0,0.978485 0,1.798676 0,2.700012c0,0.935974 0,1.783997 0,2.647308c0,1.027344 0,1.973999 0,2.652679c0,0.978668 0,1.884003 0,2.825348c0,0.690643 0,1.763977 0,2.574646c0,0.90451 0,1.921509 0,2.62085c0,0.979156 0,1.779144 0,2.579163c0,1 0,1.799988 0,2.801331c0,0.834656 0,1.76532 0,2.551331c0,0.821991 0,1.880676 0,2.800659c0,0.76001 0,1.746674 0,2.730682c0,0.690643 0,1.75882 0,2.61615c0,0.785187 0,1.725189 0,2.733185c0,0.862152 0,1.666656 0,2.56665c0,0.899994 0,1.800018 0,2.700165c0,0.785187 0,1.73584 0,2.50116c0,0.994171 0,1.913361 0,2.773346c0,0.946655 0,1.799988 0,2.73999c0,0.885345 0,1.685333 0,2.585358c0,0.899994 0,1.799988 0,2.710663c0,0.910645 0,1.763977 0,2.703979c0,0.885345 0,1.685333 0,2.585358c0,0.899994 0,1.799988 0,2.699982c0,0.899994 0,1.801331 0,2.766663c0,0.833344 0,1.811829 0,2.528839c0,0.90451 0,1.804504 0,2.704498c0,0.899994 0,1.800018 0,2.700165c0,0.785187 0,1.725189 0,2.733185c0,0.862152 0,1.666656 0,2.56665c0,0.899994 0,1.800018 0,2.700012c0,0.899994 0,1.699982 0,2.600006c0,0.899994 0,1.799988 0,2.699982c0,0.899994 0.074829,1.944183 -0.352661,2.551849c-0.480408,0.682922 -0.645081,1.399994 -0.647339,2.41217c-0.002075,0.935974 0,1.835999 0,2.735992c0,0.899994 0,1.699982 0,2.600006c0,0.899994 0,1.799988 0,2.699982c0,0.899994 0,1.800018 0,2.700012c0,0.899994 0,1.699982 0,2.600006l0,0.899994l0,0.899994l0,0.899994" id="svg_23" stroke-linecap="null" stroke-linejoin="null" stroke-dasharray="null" stroke-width="5" stroke="#000000" fill="none"/>
  <path d="m526,409c1.799988,0 2.700012,0 3.599976,0c0.900024,0 1.800049,0 2.700012,0c0.900024,0 1.799988,0 2.700012,0c0.799988,0 1.700012,0 2.599976,0c0.900024,0 1.800049,0 2.601379,0c0.965332,0 1.798645,0 2.777161,0c0.820129,0 1.721497,0 2.62146,0c0.810669,0 1.721375,0 2.574707,0c0.941345,0 1.715454,-0.096741 2.639954,0.010681c0.95929,0.111481 1.467712,0.946594 2.385376,0.989319c0.898987,0.04184 1.937866,-0.321777 2.633301,0.166656c0.71521,0.502319 1.266663,0.833344 2.166687,0.833344c0.799988,0 1.700012,0 2.599976,0l0.900024,0" id="svg_24" stroke-linecap="null" stroke-linejoin="null" stroke-dasharray="null" stroke-width="5" stroke="#000000" fill="none"/>
  <path d="m526,409c-1.700012,0 -2.599976,0 -3.5,0c-0.900024,0 -1.799988,0 -2.700012,0c-0.899963,0 -1.799988,0 -2.599976,0c-0.900024,0 -1.799988,0 -2.700012,0c-0.900024,0 -1.799988,0 -2.700012,0c-0.899994,0 -1.799988,0 -2.685333,0c-0.940002,0 -1.630646,0 -2.703979,0c-0.810669,0 -1.710663,0 -2.610687,0c-0.899994,0 -1.799988,0 -2.599976,0c-0.900024,0 -1.800018,0 -2.700012,0c-0.910675,0 -1.82132,-0.00061 -2.674652,0c-0.940002,0.000671 -1.779114,0.242126 -2.52536,0.647339c-0.761108,0.413269 -1.699982,0.352661 -2.599976,0.352661c-0.900024,0 -1.800018,0 -2.700012,0c-0.799988,0 -1.700012,0 -2.600006,0c-0.899994,0 -1.799988,0 -2.699982,0c-0.900024,0 -1.800018,0 -2.700012,0c-0.799988,0 -1.700012,0 -2.600006,0c-0.899994,0 -1.799988,0 -2.699982,0c-0.900024,0 -1.800018,0 -2.700012,0c-0.799988,0 -1.821503,-0.409332 -2.642822,0.057159c-0.551422,0.313202 -0.357178,-0.378479 -0.357178,-1.231812c0,-0.941345 0,-1.709351 0,-2.650696c0,-1.007996 0,-1.763977 0,-2.695496c0,-0.963165 0,-1.653809 0,-2.721985c0,-0.85733 0,-1.642517 0,-2.58252c0,-1.007996 0,-1.799988 0,-2.658661c0,-0.863312 0,-1.890656 0,-2.837494c0,-0.699341 0.053131,-1.681 -0.010681,-2.467834c-0.085327,-1.052155 -0.678436,-1.613525 -0.932159,-2.515167c-0.275879,-0.980347 -0.006622,-1.696808 -0.057312,-2.673981c-0.042694,-0.823486 -0.623993,-1.524658 -0.878357,-2.564362c-0.171936,-0.70282 -0.119232,-1.508972 -0.12149,-2.53598c-0.002045,-0.942017 0,-1.690521 0,-2.563995c0,-1.018524 0,-1.742523 0,-2.474518c0,-1.061005 0,-2.03598 0,-2.92099c0,-1.040161 0,-1.725677 0,-2.560333c0,-1.001343 0,-1.801331 0,-2.801331c0,-0.800018 0,-1.800171 0,-2.62085c0,-1.145813 0,-1.93631 0,-2.5c0,-0.880493 0,-2.079163 0,-2.679169c0,-0.899994 0,-2.099823 0,-2.695496c0,-0.8685 0,-1.937836 0,-2.8685c0,-0.834656 0,-1.835999 0,-2.635986c0,-1.001343 0,-1.835999 0,-2.766663c0,-0.786011 0,-1.608002 0,-2.666687c0,-0.704987 0,-1.679993 0,-2.552002c0,-0.947998 0,-1.886658 0,-2.435974c0,-1.17868 0,-2.087677 0,-2.720337c0,-1.029022 0,-2.200836 0,-2.625c0,-0.873352 0,-1.746674 0,-2.580017c0,-1.088837 0,-2.190826 0,-2.849335c0,-1.003998 0,-1.803986 0,-2.803986c0,-0.800018 0,-1.800018 0,-2.600006c0,-1 0,-1.799988 0,-2.600006c0,-0.995483 0,-1.914673 0,-2.785339c0,-0.947998 0,-1.875977 0,-2.666473c0,-1.026672 0,-1.712189 0,-2.546844c0,-1.001343 0,-1.801331 0,-2.800018c0,-0.76532 0,-1.844147 0,-2.701477c0,-0.785187 0.023987,-1.725464 0,-2.733185c-0.018005,-0.756622 -0.573547,-1.517578 -0.87851,-2.487976c-0.205688,-0.654541 -0.12149,-1.657501 -0.12149,-2.488525c0,-0.959503 0,-1.710999 0,-2.507477c0,-1.221008 0,-2.021027 0,-2.925507c0,-0.857513 0,-1.727844 0,-2.52652c0,-1.015991 0,-2.063995 0,-2.777985c0,-0.678009 0,-1.873993 0,-2.678009c0,-0.821991 0,-1.852997 0,-2.527985c0,-1.080017 0,-1.942169 0,-2.767517c0,-0.968475 0,-1.797821 0,-2.336487c0,-1.393341 0,-2.208008 0,-2.621826c0,-1.183502 0,-2.135345 0,-3c0,-1.020844 0,-1.878845 0,-2.520844c0,-0.947998 0,-1.944 0,-2.79599c0,-0.961182 0,-1.874664 0,-2.522675c0,-1.181335 0,-1.93335 0,-2.757324c0,-0.848022 0,-1.671997 0,-2.759521c0,-0.856476 0,-1.760498 0,-2.764496c0,-0.799988 0,-1.799988 0,-2.599991c0,-1.000504 0,-1.632004 0,-2.371506c0,-1.292496 0,-2.086502 0,-2.928497c0,-0.841995 0,-2 0,-2.64267c0,-0.989334 0,-1.835999 0,-2.741333c0,-0.94133 0,-1.632004 0,-2.615997c0,-0.985336 0,-1.710663 0,-2.699829c0,-0.779343 0,-1.778671 0,-2.598831c0,-0.901337 0,-1.837341 0,-2.686676c0,-0.919159 0,-1.91333 0,-2.678665c0,-0.951996 0,-1.720001 0,-2.682663c0,-0.839996 0,-1.838669 0,-2.674164c0,-0.583679 0,-1.779007 0,-2.668503c0,-0.8535 0,-1.889008 0,-2.563995c0,-1.080002 0,-1.942169 0,-2.767502c0,-0.963165 0,-1.653839 0,-2.726501c0,-0.919342 0,-1.75267 0,-2.731339c0,-0.774002 0,-1.673996 0,-2.537338c0,-0.963165 0,-1.783997 0,-2.68399c0,-0.900009 0,-1.800003 0,-2.600006c0,-0.899994 0,-1.800003 0,-2.699997c0,-0.899994 0.019196,-1.882599 0.5,-2.5c0.49826,-0.639816 0.5,-1.483994 0.5,-2.347336c0,-0.895493 0,-1.852661 0,-2.75267l0,-0.899994l0,-0.800003" id="svg_25" stroke-linecap="null" stroke-linejoin="null" stroke-dasharray="null" stroke-width="5" stroke="#000000" fill="none"/>
  <path d="m468,190c-1.700012,0 -2.600006,0 -3.5,0c-0.899994,0 -1.799988,0 -2.701324,0c-0.965332,0 -1.798676,0 -2.777344,0c-0.773987,0 -1.674011,0 -2.537323,0c-0.963165,0 -1.788513,0 -2.805328,0c-0.67868,0 -1.657166,0 -2.477356,0c-0.901337,0 -1.837311,0 -2.685333,0c-0.863312,0 -1.880005,0 -2.717316,0c-0.965332,0 -1.819519,0 -2.798676,0c-0.789337,0 -1.514679,0 -2.5,0c-0.984009,0 -1.674652,0 -2.742828,0c-0.957184,0 -1.757172,0 -2.557159,0c-0.900024,0 -1.835999,0 -2.686676,0c-0.76001,0 -1.934509,0 -2.727997,0c-0.775513,0 -1.814667,0 -2.582672,0c-0.902679,0 -1.802673,0 -2.702667,0c-0.899994,0 -1.856628,0.136566 -2.700012,-0.283997c-0.661621,-0.329926 -1.5,-0.713745 -2.399994,-0.716003c-0.899994,-0.002243 -1.799988,0 -2.699982,0c-0.900024,0 -1.800018,0 -2.700012,0c-0.799988,0 -1.757172,0 -2.652679,0c-0.863312,0 -1.711334,0 -2.647308,0c-0.900024,0 -1.800018,0 -2.700012,0c-0.799988,0 -1.700012,0 -2.600006,0c-0.899994,0 -1.802948,0.069031 -2.708984,-0.004501c-1.033722,-0.083893 -1.709595,-0.367752 -2.584351,-0.57016c-0.676636,-0.15657 -1.848541,-0.315475 -2.712006,-0.368179c-0.444977,-0.027161 -1.343964,-0.05069 -2.226654,-0.055832c-1.224792,-0.007141 -1.949158,-0.001328 -2.910675,-0.001328c-1.090668,0 -1.804657,0 -2.709991,0c-0.96933,0 -1.815338,0 -2.466003,0c-0.738647,0 -2.045502,0 -3.043823,0c-0.52417,0 -1.597504,0 -2.136658,0c-1.567505,0 -2.057678,0 -2.982025,0c-0.856323,0 -1.652649,0.002457 -2.752167,0c-1.005005,-0.002258 -1.630432,0.030563 -2.47998,-0.085327c-1.011505,-0.137985 -1.854553,-0.572922 -2.886505,-0.793167c-0.768494,-0.164017 -1.633514,-0.121506 -2.552826,-0.121506c-0.900024,0 -1.763336,0 -2.611359,0c-0.935974,0 -1.835999,0 -2.735992,0c-0.899994,0 -1.657166,0 -2.552673,0c-0.863312,0 -1.826477,0 -2.768646,0c-0.912018,0 -1.829346,0 -2.573334,0c-1.034668,0 -1.802673,0 -2.762512,0c-0.899994,0 -1.647339,0 -2.644165,0c-0.834656,0 -1.76532,0 -2.551331,0c-0.821991,0 -1.880676,0 -2.800659,0c-0.76001,0 -1.746674,0 -2.731995,0c-0.725342,0 -1.714508,0 -2.493835,0c-0.999512,0 -1.773499,0 -2.678009,0c-0.944153,0 -1.942841,0 -2.742828,0c-1,0 -1.800018,0 -2.799835,0c-0.779327,0 -1.637695,0.056183 -2.497498,-0.035995c-1.076813,-0.115448 -1.668457,-0.322433 -2.34433,-0.464005c-1.075104,-0.225189 -2.135956,-0.384003 -2.792175,-0.447327c-0.882843,-0.08519 -2.019257,-0.28331 -2.645325,-0.552673c-0.998566,-0.429626 -1.715027,-0.310425 -2.634186,-0.501328c-0.890137,-0.184875 -1.452972,-0.951721 -2.238495,-0.994171c-0.889709,-0.04808 -1.851959,0.077621 -2.748169,-0.004669c-0.911438,-0.083679 -1.439301,-0.759552 -2.420837,-0.979004c-0.781647,-0.174759 -1.689819,-0.020828 -2.678986,-0.020828c-0.779327,0 -1.778656,0 -2.598846,0c-0.901337,0 -1.879913,0.343048 -2.680481,-0.020828c-0.773254,-0.351456 -1.225342,-0.976913 -2.12085,-0.979172c-0.899994,-0.002258 -2.102295,-0.125137 -2.37915,0.541672c-0.36145,0.870499 -0.020844,1.805664 -0.020844,2.701157c0,0.957169 0,1.857178 0,2.757172c0,0.800003 0,1.699997 0,2.600006c0,0.899994 0,1.799988 0,2.699997c0,0.899994 0,1.800003 0,2.699997c0,0.800003 0,1.699997 0,2.600006c0,0.899994 0,1.799988 0,2.699997c0,0.901337 0,1.585327 0,2.52533c0,1.007996 0,1.870163 0,2.774673c0,0.899994 0,1.799988 0,2.699997c0,0.899994 0,1.800003 0,2.699997c0,0.800003 0,1.699997 0,2.600006c0,0.899994 0,1.799988 0,2.699997c0,0.899994 0,1.800003 0,2.699997c0,0.800003 0,1.699997 0,2.600006c0,0.899994 0,1.799988 0,2.699997c0,0.899994 0,1.800003 0,2.699997c0,0.800003 0,1.699997 0,2.600006c0,0.899994 0.116516,1.808151 -0.004486,2.699997c-0.11142,0.82135 -0.84137,1.466858 -0.984833,2.300003c-0.15274,0.886993 0.311523,1.85762 -0.021362,2.789322c-0.263306,0.736908 -0.983978,1.221298 -0.989319,2.110672c-0.005402,0.899979 0,1.800003 0,2.699997c0,0.900009 0,1.800003 0,2.600006c0,0.899994 0,1.800003 0,2.699997c0,0.899994 0,1.800003 0,2.699997c0,0.900009 0,1.800003 0,2.600006c0,0.899994 0,1.800003 0,2.699997c0,0.899994 0,1.799988 0,2.700012c0,0.899994 0,1.799988 0,2.599976c0,0.900024 0,1.800018 0,2.700012c0,0.899994 0,1.799988 0,2.700012c0,0.899994 -0.434265,2.03241 0.166656,2.633331c0.600922,0.600922 1.633331,0.166656 2.533356,0.166656c0.899994,0 1.799988,0 2.710663,0c0.910645,0 1.763977,0 2.703979,0c0.885345,0 1.685333,0 2.585358,0c0.899994,0 1.799988,0 2.710663,0c0.910645,0 1.763977,0 2.703979,0c0.885345,0 1.685333,0 2.585358,0c0.899994,0 1.799988,0 2.721313,0c0.912018,0 1.829346,0 2.573334,0c1.034668,0 1.802673,0 2.705353,0c0.899994,0 1.799988,0 2.699982,0c0.899994,0 1.800018,0 2.700012,0c0.899994,0 1.699982,0 2.600006,0c0.899994,0 1.799988,0 2.699982,0c0.899994,0 1.800018,0 2.700012,0c0.899994,0 1.830353,-0.392975 2.614655,0.085327c0.80365,0.490082 1.385345,0.914673 2.285339,0.914673l0.799988,0l0.900024,0l0.899994,0" id="svg_26" stroke-linecap="null" stroke-linejoin="null" stroke-dasharray="null" stroke-width="5" stroke="#000000" fill="none"/>
  <path d="m363,269c1.700012,0 2.700012,0 3.600006,0c0.899994,0 1.799988,0 2.699982,0c0.900024,0 1.800018,0 2.700012,0c0.799988,0 1.700012,0 2.600006,0c0.899994,0 1.799988,0 2.699982,0c0.900024,0 1.800018,0 2.700012,0c0.799988,0 1.700012,0 2.600006,0c0.810669,0 1.721497,0 2.610657,0c0.989166,0 1.768494,0 2.767822,0c0.82019,0 1.657501,0 2.505524,0c0.863312,0 1.880005,0 2.815979,0c0.900024,0 1.800018,0 2.700012,0c0.799988,0 1.700012,0 2.520844,0c0.963165,0 1.653809,0 2.721985,0c0.957184,0 1.857178,0 2.757172,0c0.799988,0 1.700012,0 2.600006,0c0.899994,0 1.799988,0 2.699982,0c0.900024,0 1.800018,0 2.700012,0c0.799988,0 1.700012,0 2.600006,0c0.899994,0 1.799988,0 2.699982,0c0.900024,0 1.800018,0 2.700012,0c0.799988,0 1.700012,0 2.600006,0c0.899994,0 1.799988,0 2.699982,0l0.900024,0l0.899994,0" id="svg_27" stroke-linecap="null" stroke-linejoin="null" stroke-dasharray="null" stroke-width="5" stroke="#000000" fill="none"/>
  <path d="m426,269c-0.963989,1.825348 -1,2.833344 -1,3.695496c0,0.90451 0,1.804504 0,2.704498c0,0.899994 0,1.800018 0,2.700012c0,0.899994 0,1.699982 0,2.600006c0,0.820831 -0.002167,1.783997 0,2.647308c0.002258,0.891022 0.670502,1.459534 0.979156,2.173523c0.348938,0.80719 0.020844,1.779144 0.020844,2.680481c0,0.965332 0,1.798676 0,2.632019c0,0.919312 0,1.819336 0,2.513977c0,1.027344 0,1.973999 0,2.827332c0,0.940002 0,1.825348 0,2.625336c0,0.957184 0,1.852692 0,2.547333c0,1.016693 0,1.957184 0,2.819336c0,0.833344 0,1.812012 0,2.585999c0,0.90451 0,1.848663 0,2.842834c0,0.747345 0,1.647339 0,2.604523c0,0.899994 0,1.799988 0,2.599976c0,0.900024 0,1.800018 0,2.700012c0,0.899994 -0.136566,1.856628 0.283997,2.700012c0.329926,0.661621 0.710663,1.435944 0.716003,2.452667c0.003662,0.694641 0,1.711334 0,2.647308c0,0.900024 0,1.800171 0,2.585358c0,0.940002 0,1.630646 0,2.703979c0,0.931519 0,1.732178 0,2.621338c0,0.989166 0,1.768494 0,2.767822c0,0.82019 0,1.657501 0,2.674194c0,0.694641 0,1.711334 0,2.647308c0,0.900024 0,1.800171 0,2.585358c0,0.950653 0,1.715973 0,2.710144c0,0.747345 0,1.768524 0,2.704498c0,0.900024 -0.087616,1.814728 0.085327,2.585358c0.178833,0.796997 0.645081,1.500488 0.829346,2.513336c0.137634,0.756531 0.085327,1.848663 0.085327,2.767975c0,0.833344 0,1.811829 0,2.528839c0,0.940491 0,1.788513 0,2.651825c0,1.016693 0,1.852692 0,2.752686c0,0.899994 0,1.699982 0,2.600006c0,0.899994 0,1.799988 0,2.699982c0,0.90451 0,1.921509 0,2.62085c0,0.979156 0,1.768494 0,2.8125c0,0.791992 0,1.650665 0,2.513977c0,1.016693 -0.082123,1.856476 0.000153,2.752686c0.083679,0.911438 0.800018,1.552612 0.979004,2.399994c0.186035,0.880798 0.020844,1.799988 0.020844,2.700012c0,0.899994 0,1.799988 0,2.599976c0,0.900024 0,1.800018 0,2.700012c0,0.899994 0,1.799988 0,2.700012c0,0.899994 0,1.799988 0,2.599976c0,0.900024 0,1.800018 0,2.700012c0,0.899994 -0.000092,1.799988 0,2.700012c0.000092,0.899811 0.548401,1.469299 0.942841,2.157166c0.469849,0.819397 0.057159,1.842834 0.057159,2.742828c0,0.899994 0,1.699982 0,2.600006c0,0.899994 0,1.799988 0,2.699982c0,0.899994 0,1.800018 0,2.700012c0,0.899994 0,1.699982 0,2.600006c0,0.899994 0,1.799988 0,2.699982c0,0.899994 0,1.800018 0,2.700012c0,0.899994 0,1.699982 0,2.600006c0,0.899994 0,1.799988 0,2.699982c0,0.899994 0,1.800018 0,2.700012c0,0.899994 0,1.699982 0,2.53598c0,1.016693 0,1.711334 0,2.738678c0,0.946655 0,1.625336 0,2.73999c0,0.885345 0,1.685333 0,2.585358l0,0.899994l0,0.899994l0,0.899994" id="svg_28" stroke-linecap="null" stroke-linejoin="null" stroke-dasharray="null" stroke-width="5" stroke="#000000" fill="none"/>
  <path d="m430,440c0,1.700012 0,2.700012 0,3.600006l0,0.899994l0,0.899994l0,0.899994" id="svg_29" stroke-linecap="null" stroke-linejoin="null" stroke-dasharray="null" stroke-width="5" stroke="#000000" fill="none"/>
  <path d="m345,299c1.700012,0 2.635986,0 3.484009,0c0.863312,0 1.880005,0 2.815979,0c0.900024,0 1.800018,0 2.700012,0c0.799988,0 1.700012,0 2.600006,0c0.899994,0 1.799988,0 2.699982,0c0.900024,0 1.800018,0 2.700012,0c0.799988,0 1.700012,0 2.520844,0c0.963165,0 1.653809,0 2.721985,0c0.85733,0 1.642517,0 2.59317,0c0.76532,0 1.764008,0 2.563995,0c0.998688,0 1.942841,0 2.842834,0c0.957184,0 1.757172,0 2.571503,0c0.953674,0 1.685669,0 2.852325,0c0.791687,0 1.733337,0 2.633331,0c0.900024,0 1.800018,0 2.700012,0c0.799988,0 1.700043,-0.006012 2.600006,0c0.800049,0.005341 1.82132,0.308228 2.114655,1.057343c0.369934,0.944702 0.263092,1.618286 0.280853,2.584656c0.020081,1.093475 0.004486,1.816345 0.004486,2.843323c0,0.725342 0,1.714508 0,2.493835c0,0.999512 0,1.773499 0,2.673523c0,0.863312 0,1.826477 0,2.747314c0,0.899994 0,1.800018 0,2.700012c0,0.899994 0,1.699982 0,2.600006c0,0.899994 0.052887,1.834717 -0.352661,2.599976c-0.448303,0.845917 -0.647339,1.700012 -0.647339,2.5c0,0.900024 0,1.800018 0,2.700012c0,0.899994 0,1.799988 0,2.700012c0,0.899994 0,1.799988 0,2.599976c0,0.900024 0,1.800018 0,2.700012c0,0.910675 0,1.82132 0,2.5c0,1.114655 0,2 0,2.799988c0,0.900024 0,1.800018 0,2.700012c0,0.899994 0,1.799988 0,2.700012c0,0.899994 0,1.799988 0,2.599976c0,0.900024 0,1.800018 0,2.700012c0,0.899994 0,1.799988 0,2.700012c0,0.900146 0,1.685333 0,2.625336c0,0.690643 0,1.763977 0,2.674652c0,0.899994 0,1.799988 0,2.700012c0,0.899994 0,1.799988 0,2.599976c0,0.900024 0,1.800018 0,2.700012c0,0.910675 0,1.82132 0,2.5c0,1.114655 0,2 0,2.799988c0,0.900024 0,1.800018 0,2.700012c0,0.910675 0,1.82132 0,2.5c0,1.114655 0,2 0,2.799988c0,0.900024 0,1.720856 0,2.684021c0,0.863312 0,1.763336 0,2.682648c0,0.854187 0,1.833344 0,2.622681c0,0.725342 0,1.710663 0,2.699982c0,0.829346 0,2.010681 0,2.762695c0,0.823975 0,1.247986 0,2.089996c0,1.4935 0,2.086487 0,3.044495c0,1.016174 0,1.655151 0,2.946838c0,0.638641 0,1.349335 0,2.123993c0,0.830658 0,2.163818 0,3.09082c0,0.466522 0,1.390503 0,2.282501c0,1.226166 0,1.9505 0,2.912018c0,1.090668 0,1.795654 0,2.595673c0,1.025665 0,1.961639 0,2.861664c0,0.899994 0,1.799988 0,2.599976c0,0.900024 0,1.800018 0,2.700012c0,0.899994 0,1.799988 0,2.700012c0,0.899994 0,1.799988 0,2.599976c0,0.900024 0,1.800018 0,2.700012c0,0.899994 0.194885,1.821686 -0.001343,2.698669c-0.180573,0.807037 -0.980652,1.236786 -0.998657,2.101318c-0.018738,0.899841 0,1.800018 0,2.700012c0,0.799988 0,1.700012 0,2.600006c0,0.899994 0,1.799988 0.004486,2.695496l0.495514,0.704498l0.489319,0.610657" id="svg_30" stroke-linecap="null" stroke-linejoin="null" stroke-dasharray="null" stroke-width="5" stroke="#000000" fill="none"/>
  <path d="m559,460c0,1.700012 0,2.700012 0,3.600006c0,0.899994 0,1.799988 0,2.699982l0,0.900024" id="svg_31" stroke-linecap="null" stroke-linejoin="null" stroke-dasharray="null" stroke-width="5" stroke="#000000" fill="none"/>
  <text font-weight="bold" transform="matrix(0.82531, 0, 0, 1, -49.0396, 0)" xml:space="preserve" text-anchor="middle" font-family="serif" font-size="24" id="svg_33" y="24" x="189.568234" stroke-linecap="null" stroke-linejoin="null" stroke-dasharray="null" stroke-width="0" stroke="#000000" fill="#000000">Hr r du</text>
  <ellipse ry="8.5" rx="12" id="svg_36" cy="468.499999" cx="548.000004" stroke-linecap="null" stroke-linejoin="null" stroke-dasharray="null" stroke-width="0" stroke="#000000" fill="#0000ff"/>
  <ellipse ry="10" rx="19" id="svg_37" cy="17" cx="40" stroke-linecap="null" stroke-linejoin="null" stroke-dasharray="null" stroke-width="0" stroke="#000000" fill="#ff0000"/>
  <text font-weight="bold" transform="matrix(0.598928, 0, 0, 0.518118, 367.221, 232.521)" xml:space="preserve" text-anchor="middle" font-family="serif" font-size="24" id="svg_38" y="460.489555" x="387.918533" stroke-linecap="null" stroke-linejoin="null" stroke-dasharray="null" stroke-width="0" stroke="#000000" fill="#000000">Hit vill du</text>
 </g>
</svg>